<svg xmlns="http://www.w3.org/2000/svg" width="1200" height="720"><rect width="1200" height="720" fill="#ffffff"/><text x="60" y="70" font-family="Arial" font-size="34" font-weight="bold">EA-0035 Architecture Diagram</text><rect x="70" y="130" width="240" height="90" rx="18" fill="#eef3fa" stroke="#24496f" stroke-width="3"/><text x="90" y="175" font-family="Arial" font-size="22">Providers</text><rect x="370" y="130" width="240" height="90" rx="18" fill="#eef3fa" stroke="#24496f" stroke-width="3"/><text x="390" y="175" font-family="Arial" font-size="22">Discovery</text><rect x="670" y="130" width="240" height="90" rx="18" fill="#eef3fa" stroke="#24496f" stroke-width="3"/><text x="690" y="175" font-family="Arial" font-size="22">Normalization</text><rect x="70" y="290" width="240" height="90" rx="18" fill="#eef3fa" stroke="#24496f" stroke-width="3"/><text x="90" y="335" font-family="Arial" font-size="22">Repository</text><rect x="370" y="290" width="240" height="90" rx="18" fill="#eef3fa" stroke="#24496f" stroke-width="3"/><text x="390" y="335" font-family="Arial" font-size="22">Lifecycle</text><rect x="670" y="290" width="240" height="90" rx="18" fill="#eef3fa" stroke="#24496f" stroke-width="3"/><text x="690" y="335" font-family="Arial" font-size="22">Policy/Trust</text><rect x="220" y="500" width="240" height="90" rx="18" fill="#eef3fa" stroke="#24496f" stroke-width="3"/><text x="240" y="545" font-family="Arial" font-size="22">Events</text><rect x="540" y="500" width="240" height="90" rx="18" fill="#eef3fa" stroke="#24496f" stroke-width="3"/><text x="560" y="545" font-family="Arial" font-size="22">Workflow</text></svg>