<svg xmlns="http://www.w3.org/2000/svg" width="1400" height="900" viewBox="0 0 1400 900"><rect width="1400" height="900" fill="#06111f"/><text x="60" y="80" fill="#7dd3fc" font-size="38" font-family="Arial" font-weight="700">EA-0062 Developer Workflow</text><rect x="80" y="150" width="300" height="90" rx="18" fill="#0f2742" stroke="#38bdf8" stroke-width="2"/><text x="100" y="195" fill="#e6f7ff" font-size="24" font-family="Arial">Portal Shell</text><rect x="520" y="150" width="300" height="90" rx="18" fill="#0f2742" stroke="#38bdf8" stroke-width="2"/><text x="540" y="195" fill="#e6f7ff" font-size="24" font-family="Arial">FastAPI Backend</text><rect x="960" y="150" width="300" height="90" rx="18" fill="#0f2742" stroke="#38bdf8" stroke-width="2"/><text x="980" y="195" fill="#e6f7ff" font-size="24" font-family="Arial">PostgreSQL</text><rect x="80" y="320" width="300" height="90" rx="18" fill="#0f2742" stroke="#38bdf8" stroke-width="2"/><text x="100" y="365" fill="#e6f7ff" font-size="24" font-family="Arial">EA Browser</text><rect x="520" y="320" width="300" height="90" rx="18" fill="#0f2742" stroke="#38bdf8" stroke-width="2"/><text x="540" y="365" fill="#e6f7ff" font-size="24" font-family="Arial">Mission Control</text><rect x="960" y="320" width="300" height="90" rx="18" fill="#0f2742" stroke="#38bdf8" stroke-width="2"/><text x="980" y="365" fill="#e6f7ff" font-size="24" font-family="Arial">AI Workbench</text><rect x="80" y="500" width="300" height="90" rx="18" fill="#0f2742" stroke="#38bdf8" stroke-width="2"/><text x="100" y="545" fill="#e6f7ff" font-size="24" font-family="Arial">GitHub/CI</text><rect x="520" y="500" width="300" height="90" rx="18" fill="#0f2742" stroke="#38bdf8" stroke-width="2"/><text x="540" y="545" fill="#e6f7ff" font-size="24" font-family="Arial">Traceability</text><rect x="960" y="500" width="300" height="90" rx="18" fill="#0f2742" stroke="#38bdf8" stroke-width="2"/><text x="980" y="545" fill="#e6f7ff" font-size="24" font-family="Arial">RBAC/Audit</text></svg>