<svg xmlns="http://www.w3.org/2000/svg" width="1600" height="900" viewBox="0 0 1600 900">
<defs>
  <filter id="shadow" x="-20%" y="-20%" width="140%" height="140%"><feDropShadow dx="0" dy="3" stdDeviation="4" flood-color="#0A2742" flood-opacity="0.18"/></filter>
  <linearGradient id="grad" x1="0" x2="1" y1="0" y2="1"><stop offset="0" stop-color="#0B74C8"/><stop offset="0.55" stop-color="#00A7A5"/><stop offset="1" stop-color="#28A745"/></linearGradient>
</defs>
<rect width="1600" height="900" fill="#F8FBFF"/>
<rect x="20" y="20" width="1560" height="860" rx="24" fill="white" stroke="#0B74C8" stroke-width="3"/>
<text x="70" y="75" font-family="Arial, Helvetica, sans-serif" font-weight="800" font-size="36" fill="#073B6F">Project AQELYN - Complete Engineering and Implementation Roadmap</text>
<text x="70" y="112" font-family="Arial, Helvetica, sans-serif" font-size="18" fill="#475569">Color overview poster. Use Atlas pages for readable detail.</text>
<line x1="70" y1="130" x2="1530" y2="130" stroke="#00A7A5" stroke-width="4"/>
<rect x="70" y="170" width="260" height="235" rx="18" fill="#FFFFFF" stroke="#0B74C8" stroke-width="2" filter="url(#shadow)"/><rect x="70" y="170" width="260" height="45" rx="18" fill="#0B74C8"/><text x="200" y="200" text-anchor="middle" font-family="Arial" font-weight="800" font-size="17" fill="white">1. Roadmap</text><rect x="95" y="255" width="45" height="32" rx="7" fill="#EAF6FF" stroke="#94A3B8"/><defs><marker id="arrow3472" markerWidth="10" markerHeight="8" refX="9" refY="4" orient="auto"><path d="M0,0 L10,4 L0,8 Z" fill="#6B7280"/></marker></defs><line x1="140" y1="271" x2="153" y2="326" stroke="#6B7280" stroke-width="3" marker-end="url(#arrow3472)"/><rect x="153" y="310" width="45" height="32" rx="7" fill="#E9FFF1" stroke="#94A3B8"/><defs><marker id="arrow78080" markerWidth="10" markerHeight="8" refX="9" refY="4" orient="auto"><path d="M0,0 L10,4 L0,8 Z" fill="#6B7280"/></marker></defs><line x1="198" y1="326" x2="211" y2="271" stroke="#6B7280" stroke-width="3" marker-end="url(#arrow78080)"/><rect x="211" y="255" width="45" height="32" rx="7" fill="#FFF6E6" stroke="#94A3B8"/><defs><marker id="arrow78244" markerWidth="10" markerHeight="8" refX="9" refY="4" orient="auto"><path d="M0,0 L10,4 L0,8 Z" fill="#6B7280"/></marker></defs><line x1="256" y1="271" x2="269" y2="326" stroke="#6B7280" stroke-width="3" marker-end="url(#arrow78244)"/><rect x="269" y="310" width="45" height="32" rx="7" fill="#F4EDFF" stroke="#94A3B8"/><rect x="370" y="170" width="260" height="235" rx="18" fill="#FFFFFF" stroke="#0B74C8" stroke-width="2" filter="url(#shadow)"/><rect x="370" y="170" width="260" height="45" rx="18" fill="#00A7A5"/><text x="500" y="200" text-anchor="middle" font-family="Arial" font-weight="800" font-size="17" fill="white">2. Architecture</text><rect x="395" y="255" width="45" height="32" rx="7" fill="#EAF6FF" stroke="#94A3B8"/><defs><marker id="arrow22749" markerWidth="10" markerHeight="8" refX="9" refY="4" orient="auto"><path d="M0,0 L10,4 L0,8 Z" fill="#6B7280"/></marker></defs><line x1="440" y1="271" x2="453" y2="326" stroke="#6B7280" stroke-width="3" marker-end="url(#arrow22749)"/><rect x="453" y="310" width="45" height="32" rx="7" fill="#E9FFF1" stroke="#94A3B8"/><defs><marker id="arrow38891" markerWidth="10" markerHeight="8" refX="9" refY="4" orient="auto"><path d="M0,0 L10,4 L0,8 Z" fill="#6B7280"/></marker></defs><line x1="498" y1="326" x2="511" y2="271" stroke="#6B7280" stroke-width="3" marker-end="url(#arrow38891)"/><rect x="511" y="255" width="45" height="32" rx="7" fill="#FFF6E6" stroke="#94A3B8"/><defs><marker id="arrow71931" markerWidth="10" markerHeight="8" refX="9" refY="4" orient="auto"><path d="M0,0 L10,4 L0,8 Z" fill="#6B7280"/></marker></defs><line x1="556" y1="271" x2="569" y2="326" stroke="#6B7280" stroke-width="3" marker-end="url(#arrow71931)"/><rect x="569" y="310" width="45" height="32" rx="7" fill="#F4EDFF" stroke="#94A3B8"/><rect x="670" y="170" width="260" height="235" rx="18" fill="#FFFFFF" stroke="#0B74C8" stroke-width="2" filter="url(#shadow)"/><rect x="670" y="170" width="260" height="45" rx="18" fill="#28A745"/><text x="800" y="200" text-anchor="middle" font-family="Arial" font-weight="800" font-size="17" fill="white">3. Dependencies</text><rect x="695" y="255" width="45" height="32" rx="7" fill="#EAF6FF" stroke="#94A3B8"/><defs><marker id="arrow58792" markerWidth="10" markerHeight="8" refX="9" refY="4" orient="auto"><path d="M0,0 L10,4 L0,8 Z" fill="#6B7280"/></marker></defs><line x1="740" y1="271" x2="753" y2="326" stroke="#6B7280" stroke-width="3" marker-end="url(#arrow58792)"/><rect x="753" y="310" width="45" height="32" rx="7" fill="#E9FFF1" stroke="#94A3B8"/><defs><marker id="arrow37754" markerWidth="10" markerHeight="8" refX="9" refY="4" orient="auto"><path d="M0,0 L10,4 L0,8 Z" fill="#6B7280"/></marker></defs><line x1="798" y1="326" x2="811" y2="271" stroke="#6B7280" stroke-width="3" marker-end="url(#arrow37754)"/><rect x="811" y="255" width="45" height="32" rx="7" fill="#FFF6E6" stroke="#94A3B8"/><defs><marker id="arrow73878" markerWidth="10" markerHeight="8" refX="9" refY="4" orient="auto"><path d="M0,0 L10,4 L0,8 Z" fill="#6B7280"/></marker></defs><line x1="856" y1="271" x2="869" y2="326" stroke="#6B7280" stroke-width="3" marker-end="url(#arrow73878)"/><rect x="869" y="310" width="45" height="32" rx="7" fill="#F4EDFF" stroke="#94A3B8"/><rect x="970" y="170" width="260" height="235" rx="18" fill="#FFFFFF" stroke="#0B74C8" stroke-width="2" filter="url(#shadow)"/><rect x="970" y="170" width="260" height="45" rx="18" fill="#F5A623"/><text x="1100" y="200" text-anchor="middle" font-family="Arial" font-weight="800" font-size="17" fill="white">4. Coding</text><rect x="995" y="255" width="45" height="32" rx="7" fill="#EAF6FF" stroke="#94A3B8"/><defs><marker id="arrow23255" markerWidth="10" markerHeight="8" refX="9" refY="4" orient="auto"><path d="M0,0 L10,4 L0,8 Z" fill="#6B7280"/></marker></defs><line x1="1040" y1="271" x2="1053" y2="326" stroke="#6B7280" stroke-width="3" marker-end="url(#arrow23255)"/><rect x="1053" y="310" width="45" height="32" rx="7" fill="#E9FFF1" stroke="#94A3B8"/><defs><marker id="arrow12359" markerWidth="10" markerHeight="8" refX="9" refY="4" orient="auto"><path d="M0,0 L10,4 L0,8 Z" fill="#6B7280"/></marker></defs><line x1="1098" y1="326" x2="1111" y2="271" stroke="#6B7280" stroke-width="3" marker-end="url(#arrow12359)"/><rect x="1111" y="255" width="45" height="32" rx="7" fill="#FFF6E6" stroke="#94A3B8"/><defs><marker id="arrow35005" markerWidth="10" markerHeight="8" refX="9" refY="4" orient="auto"><path d="M0,0 L10,4 L0,8 Z" fill="#6B7280"/></marker></defs><line x1="1156" y1="271" x2="1169" y2="326" stroke="#6B7280" stroke-width="3" marker-end="url(#arrow35005)"/><rect x="1169" y="310" width="45" height="32" rx="7" fill="#F4EDFF" stroke="#94A3B8"/><rect x="1270" y="170" width="260" height="235" rx="18" fill="#FFFFFF" stroke="#0B74C8" stroke-width="2" filter="url(#shadow)"/><rect x="1270" y="170" width="260" height="45" rx="18" fill="#7B61FF"/><text x="1400" y="200" text-anchor="middle" font-family="Arial" font-weight="800" font-size="17" fill="white">5. Runtime</text><rect x="1295" y="255" width="45" height="32" rx="7" fill="#EAF6FF" stroke="#94A3B8"/><defs><marker id="arrow65988" markerWidth="10" markerHeight="8" refX="9" refY="4" orient="auto"><path d="M0,0 L10,4 L0,8 Z" fill="#6B7280"/></marker></defs><line x1="1340" y1="271" x2="1353" y2="326" stroke="#6B7280" stroke-width="3" marker-end="url(#arrow65988)"/><rect x="1353" y="310" width="45" height="32" rx="7" fill="#E9FFF1" stroke="#94A3B8"/><defs><marker id="arrow40572" markerWidth="10" markerHeight="8" refX="9" refY="4" orient="auto"><path d="M0,0 L10,4 L0,8 Z" fill="#6B7280"/></marker></defs><line x1="1398" y1="326" x2="1411" y2="271" stroke="#6B7280" stroke-width="3" marker-end="url(#arrow40572)"/><rect x="1411" y="255" width="45" height="32" rx="7" fill="#FFF6E6" stroke="#94A3B8"/><defs><marker id="arrow91216" markerWidth="10" markerHeight="8" refX="9" refY="4" orient="auto"><path d="M0,0 L10,4 L0,8 Z" fill="#6B7280"/></marker></defs><line x1="1456" y1="271" x2="1469" y2="326" stroke="#6B7280" stroke-width="3" marker-end="url(#arrow91216)"/><rect x="1469" y="310" width="45" height="32" rx="7" fill="#F4EDFF" stroke="#94A3B8"/><rect x="70" y="470" width="260" height="235" rx="18" fill="#FFFFFF" stroke="#0B74C8" stroke-width="2" filter="url(#shadow)"/><rect x="70" y="470" width="260" height="45" rx="18" fill="#0B74C8"/><text x="200" y="500" text-anchor="middle" font-family="Arial" font-weight="800" font-size="17" fill="white">6. Data Flow</text><rect x="95" y="555" width="45" height="32" rx="7" fill="#EAF6FF" stroke="#94A3B8"/><defs><marker id="arrow69959" markerWidth="10" markerHeight="8" refX="9" refY="4" orient="auto"><path d="M0,0 L10,4 L0,8 Z" fill="#6B7280"/></marker></defs><line x1="140" y1="571" x2="153" y2="626" stroke="#6B7280" stroke-width="3" marker-end="url(#arrow69959)"/><rect x="153" y="610" width="45" height="32" rx="7" fill="#E9FFF1" stroke="#94A3B8"/><defs><marker id="arrow22807" markerWidth="10" markerHeight="8" refX="9" refY="4" orient="auto"><path d="M0,0 L10,4 L0,8 Z" fill="#6B7280"/></marker></defs><line x1="198" y1="626" x2="211" y2="571" stroke="#6B7280" stroke-width="3" marker-end="url(#arrow22807)"/><rect x="211" y="555" width="45" height="32" rx="7" fill="#FFF6E6" stroke="#94A3B8"/><defs><marker id="arrow56429" markerWidth="10" markerHeight="8" refX="9" refY="4" orient="auto"><path d="M0,0 L10,4 L0,8 Z" fill="#6B7280"/></marker></defs><line x1="256" y1="571" x2="269" y2="626" stroke="#6B7280" stroke-width="3" marker-end="url(#arrow56429)"/><rect x="269" y="610" width="45" height="32" rx="7" fill="#F4EDFF" stroke="#94A3B8"/><rect x="370" y="470" width="260" height="235" rx="18" fill="#FFFFFF" stroke="#0B74C8" stroke-width="2" filter="url(#shadow)"/><rect x="370" y="470" width="260" height="45" rx="18" fill="#00A7A5"/><text x="500" y="500" text-anchor="middle" font-family="Arial" font-weight="800" font-size="17" fill="white">7. Event Flow</text><rect x="395" y="555" width="45" height="32" rx="7" fill="#EAF6FF" stroke="#94A3B8"/><defs><marker id="arrow44564" markerWidth="10" markerHeight="8" refX="9" refY="4" orient="auto"><path d="M0,0 L10,4 L0,8 Z" fill="#6B7280"/></marker></defs><line x1="440" y1="571" x2="453" y2="626" stroke="#6B7280" stroke-width="3" marker-end="url(#arrow44564)"/><rect x="453" y="610" width="45" height="32" rx="7" fill="#E9FFF1" stroke="#94A3B8"/><defs><marker id="arrow52528" markerWidth="10" markerHeight="8" refX="9" refY="4" orient="auto"><path d="M0,0 L10,4 L0,8 Z" fill="#6B7280"/></marker></defs><line x1="498" y1="626" x2="511" y2="571" stroke="#6B7280" stroke-width="3" marker-end="url(#arrow52528)"/><rect x="511" y="555" width="45" height="32" rx="7" fill="#FFF6E6" stroke="#94A3B8"/><defs><marker id="arrow74382" markerWidth="10" markerHeight="8" refX="9" refY="4" orient="auto"><path d="M0,0 L10,4 L0,8 Z" fill="#6B7280"/></marker></defs><line x1="556" y1="571" x2="569" y2="626" stroke="#6B7280" stroke-width="3" marker-end="url(#arrow74382)"/><rect x="569" y="610" width="45" height="32" rx="7" fill="#F4EDFF" stroke="#94A3B8"/><rect x="670" y="470" width="260" height="235" rx="18" fill="#FFFFFF" stroke="#0B74C8" stroke-width="2" filter="url(#shadow)"/><rect x="670" y="470" width="260" height="45" rx="18" fill="#28A745"/><text x="800" y="500" text-anchor="middle" font-family="Arial" font-weight="800" font-size="17" fill="white">8. Deployment</text><rect x="695" y="555" width="45" height="32" rx="7" fill="#EAF6FF" stroke="#94A3B8"/><defs><marker id="arrow91937" markerWidth="10" markerHeight="8" refX="9" refY="4" orient="auto"><path d="M0,0 L10,4 L0,8 Z" fill="#6B7280"/></marker></defs><line x1="740" y1="571" x2="753" y2="626" stroke="#6B7280" stroke-width="3" marker-end="url(#arrow91937)"/><rect x="753" y="610" width="45" height="32" rx="7" fill="#E9FFF1" stroke="#94A3B8"/><defs><marker id="arrow31261" markerWidth="10" markerHeight="8" refX="9" refY="4" orient="auto"><path d="M0,0 L10,4 L0,8 Z" fill="#6B7280"/></marker></defs><line x1="798" y1="626" x2="811" y2="571" stroke="#6B7280" stroke-width="3" marker-end="url(#arrow31261)"/><rect x="811" y="555" width="45" height="32" rx="7" fill="#FFF6E6" stroke="#94A3B8"/><defs><marker id="arrow72991" markerWidth="10" markerHeight="8" refX="9" refY="4" orient="auto"><path d="M0,0 L10,4 L0,8 Z" fill="#6B7280"/></marker></defs><line x1="856" y1="571" x2="869" y2="626" stroke="#6B7280" stroke-width="3" marker-end="url(#arrow72991)"/><rect x="869" y="610" width="45" height="32" rx="7" fill="#F4EDFF" stroke="#94A3B8"/><rect x="970" y="470" width="260" height="235" rx="18" fill="#FFFFFF" stroke="#0B74C8" stroke-width="2" filter="url(#shadow)"/><rect x="970" y="470" width="260" height="45" rx="18" fill="#F5A623"/><text x="1100" y="500" text-anchor="middle" font-family="Arial" font-weight="800" font-size="17" fill="white">9. CI/CD</text><rect x="995" y="555" width="45" height="32" rx="7" fill="#EAF6FF" stroke="#94A3B8"/><defs><marker id="arrow77632" markerWidth="10" markerHeight="8" refX="9" refY="4" orient="auto"><path d="M0,0 L10,4 L0,8 Z" fill="#6B7280"/></marker></defs><line x1="1040" y1="571" x2="1053" y2="626" stroke="#6B7280" stroke-width="3" marker-end="url(#arrow77632)"/><rect x="1053" y="610" width="45" height="32" rx="7" fill="#E9FFF1" stroke="#94A3B8"/><defs><marker id="arrow88528" markerWidth="10" markerHeight="8" refX="9" refY="4" orient="auto"><path d="M0,0 L10,4 L0,8 Z" fill="#6B7280"/></marker></defs><line x1="1098" y1="626" x2="1111" y2="571" stroke="#6B7280" stroke-width="3" marker-end="url(#arrow88528)"/><rect x="1111" y="555" width="45" height="32" rx="7" fill="#FFF6E6" stroke="#94A3B8"/><defs><marker id="arrow15724" markerWidth="10" markerHeight="8" refX="9" refY="4" orient="auto"><path d="M0,0 L10,4 L0,8 Z" fill="#6B7280"/></marker></defs><line x1="1156" y1="571" x2="1169" y2="626" stroke="#6B7280" stroke-width="3" marker-end="url(#arrow15724)"/><rect x="1169" y="610" width="45" height="32" rx="7" fill="#F4EDFF" stroke="#94A3B8"/><rect x="1270" y="470" width="260" height="235" rx="18" fill="#FFFFFF" stroke="#0B74C8" stroke-width="2" filter="url(#shadow)"/><rect x="1270" y="470" width="260" height="45" rx="18" fill="#7B61FF"/><text x="1400" y="500" text-anchor="middle" font-family="Arial" font-weight="800" font-size="17" fill="white">10. SecOps</text><rect x="1295" y="555" width="45" height="32" rx="7" fill="#EAF6FF" stroke="#94A3B8"/><defs><marker id="arrow68340" markerWidth="10" markerHeight="8" refX="9" refY="4" orient="auto"><path d="M0,0 L10,4 L0,8 Z" fill="#6B7280"/></marker></defs><line x1="1340" y1="571" x2="1353" y2="626" stroke="#6B7280" stroke-width="3" marker-end="url(#arrow68340)"/><rect x="1353" y="610" width="45" height="32" rx="7" fill="#E9FFF1" stroke="#94A3B8"/><defs><marker id="arrow76716" markerWidth="10" markerHeight="8" refX="9" refY="4" orient="auto"><path d="M0,0 L10,4 L0,8 Z" fill="#6B7280"/></marker></defs><line x1="1398" y1="626" x2="1411" y2="571" stroke="#6B7280" stroke-width="3" marker-end="url(#arrow76716)"/><rect x="1411" y="555" width="45" height="32" rx="7" fill="#FFF6E6" stroke="#94A3B8"/><defs><marker id="arrow90329" markerWidth="10" markerHeight="8" refX="9" refY="4" orient="auto"><path d="M0,0 L10,4 L0,8 Z" fill="#6B7280"/></marker></defs><line x1="1456" y1="571" x2="1469" y2="626" stroke="#6B7280" stroke-width="3" marker-end="url(#arrow90329)"/><rect x="1469" y="610" width="45" height="32" rx="7" fill="#F4EDFF" stroke="#94A3B8"/><text x="70" y="850" font-family="Arial" font-size="14" fill="#64748B">Project AQELYN Architecture Atlas v1.0 - Vector source, PDF and HTML generated from the same atlas model</text></svg>