<svg xmlns="http://www.w3.org/2000/svg" width="1200" height="700" viewBox="0 0 1200 700"><defs><linearGradient id="g" x1="0" x2="1"><stop stop-color="#07111f"/><stop offset="1" stop-color="#0b4f8a"/></linearGradient><marker id="arrow" markerWidth="10" markerHeight="10" refX="6" refY="3" orient="auto" markerUnits="strokeWidth"><path d="M0,0 L0,6 L9,3 z" fill="#7dd3fc"/></marker></defs><rect width="1200" height="700" fill="url(#g)"/><text x="60" y="90" fill="#ffffff" font-size="42" font-family="Arial" font-weight="700">AQELYN</text><text x="60" y="135" fill="#7dd3fc" font-size="26" font-family="Arial">Workflow</text><rect x="80" y="280" rx="18" width="170" height="100" fill="#ffffff" opacity="0.92"/><text x="100" y="338" fill="#0b1220" font-size="20" font-family="Arial" font-weight="700">EA Baseline</text><path d="M250 330 L285 330" stroke="#7dd3fc" stroke-width="6" marker-end="url(#arrow)"/><rect x="290" y="280" rx="18" width="170" height="100" fill="#ffffff" opacity="0.92"/><text x="310" y="338" fill="#0b1220" font-size="20" font-family="Arial" font-weight="700">Standards</text><path d="M460 330 L495 330" stroke="#7dd3fc" stroke-width="6" marker-end="url(#arrow)"/><rect x="500" y="280" rx="18" width="170" height="100" fill="#ffffff" opacity="0.92"/><text x="520" y="338" fill="#0b1220" font-size="20" font-family="Arial" font-weight="700">Implementation</text><path d="M670 330 L705 330" stroke="#7dd3fc" stroke-width="6" marker-end="url(#arrow)"/><rect x="710" y="280" rx="18" width="170" height="100" fill="#ffffff" opacity="0.92"/><text x="730" y="338" fill="#0b1220" font-size="20" font-family="Arial" font-weight="700">Testing</text><path d="M880 330 L915 330" stroke="#7dd3fc" stroke-width="6" marker-end="url(#arrow)"/><rect x="920" y="280" rx="18" width="170" height="100" fill="#ffffff" opacity="0.92"/><text x="940" y="338" fill="#0b1220" font-size="20" font-family="Arial" font-weight="700">Release</text></svg>