<svg xmlns="http://www.w3.org/2000/svg" width="1200" height="605" viewBox="0 0 1200 605">
<style>text{font-family:Arial,sans-serif}.title{font-size:28px;font-weight:bold}.node{fill:#f4f7fb;stroke:#1d3557;stroke-width:2}.edge{stroke:#555;stroke-width:2;marker-end:url(#arrow)}</style>
<defs><marker id="arrow" viewBox="0 0 10 10" refX="9" refY="5" markerWidth="7" markerHeight="7" orient="auto-start-reverse"><path d="M 0 0 L 10 5 L 0 10 z" fill="#555"/></marker></defs>
<text x="40" y="45" class="title">EA-0030 Software Supply Chain Architecture</text>
<rect x="60" y="90" width="480" height="56" rx="8" class="node"/>
<text x="78" y="125" font-size="18">Software Inventory</text>
<rect x="620" y="90" width="480" height="56" rx="8" class="node"/>
<text x="638" y="125" font-size="18">SBOM Intelligence</text>
<rect x="60" y="185" width="480" height="56" rx="8" class="node"/>
<text x="78" y="220" font-size="18">Dependency Analysis</text>
<rect x="620" y="185" width="480" height="56" rx="8" class="node"/>
<text x="638" y="220" font-size="18">Provenance Verification</text>
<rect x="60" y="280" width="480" height="56" rx="8" class="node"/>
<text x="78" y="315" font-size="18">Supply Chain Compliance</text>
<rect x="620" y="280" width="480" height="56" rx="8" class="node"/>
<text x="638" y="315" font-size="18">Supply Chain Risk</text>
<rect x="60" y="375" width="480" height="56" rx="8" class="node"/>
<text x="78" y="410" font-size="18">Knowledge Graph Connector</text>
<rect x="620" y="375" width="480" height="56" rx="8" class="node"/>
<text x="638" y="410" font-size="18">Data Lake Connector</text>
<rect x="60" y="470" width="480" height="56" rx="8" class="node"/>
<text x="78" y="505" font-size="18">AI Decision Connector</text>
<rect x="620" y="470" width="480" height="56" rx="8" class="node"/>
<text x="638" y="505" font-size="18">Event Publisher</text>
<line x1="540" y1="118" x2="620" y2="118" class="edge"/>
<line x1="1100" y1="118" x2="60" y2="213" class="edge"/>
<line x1="540" y1="213" x2="620" y2="213" class="edge"/>
<line x1="1100" y1="213" x2="60" y2="308" class="edge"/>
<line x1="540" y1="308" x2="620" y2="308" class="edge"/>
<line x1="1100" y1="308" x2="60" y2="403" class="edge"/>
<line x1="540" y1="403" x2="620" y2="403" class="edge"/>
<line x1="1100" y1="403" x2="60" y2="498" class="edge"/>
<line x1="540" y1="498" x2="620" y2="498" class="edge"/>
</svg>