<svg xmlns="http://www.w3.org/2000/svg" width="1200" height="1080" viewBox="0 0 1200 1080">
<style>text{font-family:Arial,sans-serif}.title{font-size:28px;font-weight:bold}.node{fill:#f4f7fb;stroke:#1d3557;stroke-width:2}.edge{stroke:#555;stroke-width:2;marker-end:url(#arrow)}</style>
<defs><marker id="arrow" viewBox="0 0 10 10" refX="9" refY="5" markerWidth="7" markerHeight="7" orient="auto-start-reverse"><path d="M 0 0 L 10 5 L 0 10 z" fill="#555"/></marker></defs>
<text x="40" y="45" class="title">AQELYN Engine Integration</text>
<rect x="60" y="90" width="480" height="56" rx="8" class="node"/>
<text x="78" y="125" font-size="18">Supply Chain Engine</text>
<rect x="620" y="90" width="480" height="56" rx="8" class="node"/>
<text x="638" y="125" font-size="18">Kernel</text>
<rect x="60" y="185" width="480" height="56" rx="8" class="node"/>
<text x="78" y="220" font-size="18">UOM</text>
<rect x="620" y="185" width="480" height="56" rx="8" class="node"/>
<text x="638" y="220" font-size="18">Event Bus</text>
<rect x="60" y="280" width="480" height="56" rx="8" class="node"/>
<text x="78" y="315" font-size="18">Evidence Engine</text>
<rect x="620" y="280" width="480" height="56" rx="8" class="node"/>
<text x="638" y="315" font-size="18">Knowledge Graph</text>
<rect x="60" y="375" width="480" height="56" rx="8" class="node"/>
<text x="78" y="410" font-size="18">Trust Engine</text>
<rect x="620" y="375" width="480" height="56" rx="8" class="node"/>
<text x="638" y="410" font-size="18">Mission Engine</text>
<rect x="60" y="470" width="480" height="56" rx="8" class="node"/>
<text x="78" y="505" font-size="18">Workflow Engine</text>
<rect x="620" y="470" width="480" height="56" rx="8" class="node"/>
<text x="638" y="505" font-size="18">Policy Engine</text>
<rect x="60" y="565" width="480" height="56" rx="8" class="node"/>
<text x="78" y="600" font-size="18">Compliance Engine</text>
<rect x="620" y="565" width="480" height="56" rx="8" class="node"/>
<text x="638" y="600" font-size="18">Risk Intelligence</text>
<rect x="60" y="660" width="480" height="56" rx="8" class="node"/>
<text x="78" y="695" font-size="18">Threat Intelligence</text>
<rect x="620" y="660" width="480" height="56" rx="8" class="node"/>
<text x="638" y="695" font-size="18">Security Data Lake</text>
<rect x="60" y="755" width="480" height="56" rx="8" class="node"/>
<text x="78" y="790" font-size="18">AI Decision Engine</text>
<rect x="620" y="755" width="480" height="56" rx="8" class="node"/>
<text x="638" y="790" font-size="18">Executive Reporting</text>
<rect x="60" y="850" width="480" height="56" rx="8" class="node"/>
<text x="78" y="885" font-size="18">Vulnerability Intelligence</text>
<rect x="620" y="850" width="480" height="56" rx="8" class="node"/>
<text x="638" y="885" font-size="18">Asset Discovery</text>
<rect x="60" y="945" width="480" height="56" rx="8" class="node"/>
<text x="78" y="980" font-size="18">Security Operations</text>
<line x1="540" y1="118" x2="620" y2="118" class="edge"/>
<line x1="540" y1="118" x2="60" y2="213" class="edge"/>
<line x1="540" y1="118" x2="620" y2="213" class="edge"/>
<line x1="540" y1="118" x2="60" y2="308" class="edge"/>
<line x1="540" y1="118" x2="620" y2="308" class="edge"/>
<line x1="540" y1="118" x2="60" y2="403" class="edge"/>
<line x1="540" y1="118" x2="620" y2="403" class="edge"/>
<line x1="540" y1="118" x2="60" y2="498" class="edge"/>
<line x1="540" y1="118" x2="620" y2="498" class="edge"/>
<line x1="540" y1="118" x2="60" y2="593" class="edge"/>
<line x1="540" y1="118" x2="620" y2="593" class="edge"/>
<line x1="540" y1="118" x2="60" y2="688" class="edge"/>
<line x1="540" y1="118" x2="620" y2="688" class="edge"/>
<line x1="540" y1="118" x2="60" y2="783" class="edge"/>
<line x1="540" y1="118" x2="620" y2="783" class="edge"/>
<line x1="540" y1="118" x2="60" y2="878" class="edge"/>
<line x1="540" y1="118" x2="620" y2="878" class="edge"/>
<line x1="540" y1="118" x2="60" y2="973" class="edge"/>
</svg>