<svg xmlns="http://www.w3.org/2000/svg" width="1600" height="900" viewBox="0 0 1600 900">
<defs>
  <filter id="shadow" x="-20%" y="-20%" width="140%" height="140%"><feDropShadow dx="0" dy="3" stdDeviation="4" flood-color="#0A2742" flood-opacity="0.18"/></filter>
  <linearGradient id="grad" x1="0" x2="1" y1="0" y2="1"><stop offset="0" stop-color="#0B74C8"/><stop offset="0.55" stop-color="#00A7A5"/><stop offset="1" stop-color="#28A745"/></linearGradient>
</defs>
<rect width="1600" height="900" fill="#F8FBFF"/>
<rect x="20" y="20" width="1560" height="860" rx="24" fill="white" stroke="#0B74C8" stroke-width="3"/>
<text x="70" y="75" font-family="Arial, Helvetica, sans-serif" font-weight="800" font-size="36" fill="#073B6F">01 - Master Engineering Roadmap</text>
<text x="70" y="112" font-family="Arial, Helvetica, sans-serif" font-size="18" fill="#475569">From project charter to production release with continuous improvement.</text>
<line x1="70" y1="130" x2="1530" y2="130" stroke="#00A7A5" stroke-width="4"/>
<rect x="75" y="220" width="190" height="95" rx="18" fill="#0B74C8" filter="url(#shadow)"/><text x="170.0" y="260" text-anchor="middle" font-family="Arial" font-size="18" font-weight="800" fill="white">Vision &amp; Charter</text><defs><marker id="arrow43157" markerWidth="10" markerHeight="8" refX="9" refY="4" orient="auto"><path d="M0,0 L10,4 L0,8 Z" fill="#073B6F"/></marker></defs><line x1="269" y1="267.5" x2="277" y2="267.5" stroke="#073B6F" stroke-width="3" marker-end="url(#arrow43157)"/><rect x="285" y="220" width="190" height="95" rx="18" fill="#00A7A5" filter="url(#shadow)"/><text x="380.0" y="260" text-anchor="middle" font-family="Arial" font-size="18" font-weight="800" fill="white">Engineering</text><text x="380.0" y="283" text-anchor="middle" font-family="Arial" font-size="18" font-weight="800" fill="white">Archives</text><defs><marker id="arrow93963" markerWidth="10" markerHeight="8" refX="9" refY="4" orient="auto"><path d="M0,0 L10,4 L0,8 Z" fill="#073B6F"/></marker></defs><line x1="479" y1="267.5" x2="487" y2="267.5" stroke="#073B6F" stroke-width="3" marker-end="url(#arrow93963)"/><rect x="495" y="220" width="190" height="95" rx="18" fill="#28A745" filter="url(#shadow)"/><text x="590.0" y="260" text-anchor="middle" font-family="Arial" font-size="18" font-weight="800" fill="white">Implementation</text><text x="590.0" y="283" text-anchor="middle" font-family="Arial" font-size="18" font-weight="800" fill="white">Blueprint</text><defs><marker id="arrow39387" markerWidth="10" markerHeight="8" refX="9" refY="4" orient="auto"><path d="M0,0 L10,4 L0,8 Z" fill="#073B6F"/></marker></defs><line x1="689" y1="267.5" x2="697" y2="267.5" stroke="#073B6F" stroke-width="3" marker-end="url(#arrow39387)"/><rect x="705" y="220" width="190" height="95" rx="18" fill="#F5A623" filter="url(#shadow)"/><text x="800.0" y="260" text-anchor="middle" font-family="Arial" font-size="18" font-weight="800" fill="white">Foundation</text><text x="800.0" y="283" text-anchor="middle" font-family="Arial" font-size="18" font-weight="800" fill="white">Runtime</text><defs><marker id="arrow54048" markerWidth="10" markerHeight="8" refX="9" refY="4" orient="auto"><path d="M0,0 L10,4 L0,8 Z" fill="#073B6F"/></marker></defs><line x1="899" y1="267.5" x2="907" y2="267.5" stroke="#073B6F" stroke-width="3" marker-end="url(#arrow54048)"/><rect x="915" y="220" width="190" height="95" rx="18" fill="#7B61FF" filter="url(#shadow)"/><text x="1010.0" y="260" text-anchor="middle" font-family="Arial" font-size="18" font-weight="800" fill="white">Engine Platforms</text><defs><marker id="arrow82564" markerWidth="10" markerHeight="8" refX="9" refY="4" orient="auto"><path d="M0,0 L10,4 L0,8 Z" fill="#073B6F"/></marker></defs><line x1="1109" y1="267.5" x2="1117" y2="267.5" stroke="#073B6F" stroke-width="3" marker-end="url(#arrow82564)"/><rect x="1125" y="220" width="190" height="95" rx="18" fill="#073B6F" filter="url(#shadow)"/><text x="1220.0" y="260" text-anchor="middle" font-family="Arial" font-size="18" font-weight="800" fill="white">Integration &amp;</text><text x="1220.0" y="283" text-anchor="middle" font-family="Arial" font-size="18" font-weight="800" fill="white">Test</text><defs><marker id="arrow64563" markerWidth="10" markerHeight="8" refX="9" refY="4" orient="auto"><path d="M0,0 L10,4 L0,8 Z" fill="#073B6F"/></marker></defs><line x1="1319" y1="267.5" x2="1327" y2="267.5" stroke="#073B6F" stroke-width="3" marker-end="url(#arrow64563)"/><rect x="1335" y="220" width="190" height="95" rx="18" fill="#28A745" filter="url(#shadow)"/><text x="1430.0" y="260" text-anchor="middle" font-family="Arial" font-size="18" font-weight="800" fill="white">Production</text><text x="1430.0" y="283" text-anchor="middle" font-family="Arial" font-size="18" font-weight="800" fill="white">Release</text><rect x="120" y="500" width="150" height="56" rx="12" fill="#EAF6FF" stroke="#00A7A5" stroke-width="2" filter="url(#shadow)"/><text x="195.0" y="528.0" text-anchor="middle" font-family="Arial" font-size="16" font-weight="700" fill="#0F172A">Feedback</text><defs><marker id="arrow7894" markerWidth="10" markerHeight="8" refX="9" refY="4" orient="auto"><path d="M0,0 L10,4 L0,8 Z" fill="#00A7A5"/></marker></defs><line x1="270" y1="528" x2="310" y2="528" stroke="#00A7A5" stroke-width="3" marker-end="url(#arrow7894)"/><rect x="320" y="500" width="150" height="56" rx="12" fill="#EAF6FF" stroke="#00A7A5" stroke-width="2" filter="url(#shadow)"/><text x="395.0" y="528.0" text-anchor="middle" font-family="Arial" font-size="16" font-weight="700" fill="#0F172A">Measure</text><defs><marker id="arrow69530" markerWidth="10" markerHeight="8" refX="9" refY="4" orient="auto"><path d="M0,0 L10,4 L0,8 Z" fill="#00A7A5"/></marker></defs><line x1="470" y1="528" x2="510" y2="528" stroke="#00A7A5" stroke-width="3" marker-end="url(#arrow69530)"/><rect x="520" y="500" width="150" height="56" rx="12" fill="#EAF6FF" stroke="#00A7A5" stroke-width="2" filter="url(#shadow)"/><text x="595.0" y="528.0" text-anchor="middle" font-family="Arial" font-size="16" font-weight="700" fill="#0F172A">Refine</text><defs><marker id="arrow97027" markerWidth="10" markerHeight="8" refX="9" refY="4" orient="auto"><path d="M0,0 L10,4 L0,8 Z" fill="#00A7A5"/></marker></defs><line x1="670" y1="528" x2="710" y2="528" stroke="#00A7A5" stroke-width="3" marker-end="url(#arrow97027)"/><rect x="720" y="500" width="150" height="56" rx="12" fill="#EAF6FF" stroke="#00A7A5" stroke-width="2" filter="url(#shadow)"/><text x="795.0" y="528.0" text-anchor="middle" font-family="Arial" font-size="16" font-weight="700" fill="#0F172A">Validate</text><defs><marker id="arrow26115" markerWidth="10" markerHeight="8" refX="9" refY="4" orient="auto"><path d="M0,0 L10,4 L0,8 Z" fill="#00A7A5"/></marker></defs><line x1="870" y1="528" x2="910" y2="528" stroke="#00A7A5" stroke-width="3" marker-end="url(#arrow26115)"/><rect x="920" y="500" width="150" height="56" rx="12" fill="#EAF6FF" stroke="#00A7A5" stroke-width="2" filter="url(#shadow)"/><text x="995.0" y="528.0" text-anchor="middle" font-family="Arial" font-size="16" font-weight="700" fill="#0F172A">Harden</text><defs><marker id="arrow86868" markerWidth="10" markerHeight="8" refX="9" refY="4" orient="auto"><path d="M0,0 L10,4 L0,8 Z" fill="#00A7A5"/></marker></defs><line x1="1070" y1="528" x2="1110" y2="528" stroke="#00A7A5" stroke-width="3" marker-end="url(#arrow86868)"/><rect x="1120" y="500" width="150" height="56" rx="12" fill="#EAF6FF" stroke="#00A7A5" stroke-width="2" filter="url(#shadow)"/><text x="1195.0" y="528.0" text-anchor="middle" font-family="Arial" font-size="16" font-weight="700" fill="#0F172A">Operate</text><defs><marker id="arrow60154" markerWidth="10" markerHeight="8" refX="9" refY="4" orient="auto"><path d="M0,0 L10,4 L0,8 Z" fill="#00A7A5"/></marker></defs><line x1="1270" y1="528" x2="1310" y2="528" stroke="#00A7A5" stroke-width="3" marker-end="url(#arrow60154)"/><rect x="1320" y="500" width="150" height="56" rx="12" fill="#EAF6FF" stroke="#00A7A5" stroke-width="2" filter="url(#shadow)"/><text x="1395.0" y="528.0" text-anchor="middle" font-family="Arial" font-size="16" font-weight="700" fill="#0F172A">Evolve</text><path d="M 1450 545 C 1510 650, 200 700, 130 545" fill="none" stroke="#7B61FF" stroke-width="5" stroke-dasharray="12 8" marker-end="url(#loop)"/><text x="70" y="850" font-family="Arial" font-size="14" fill="#64748B">AQELYN Architecture Atlas v1.0 - Vector source, PDF and HTML generated from the same atlas model</text></svg>