<svg xmlns="http://www.w3.org/2000/svg" width="1600" height="900" viewBox="0 0 1600 900">
<defs>
  <filter id="shadow" x="-20%" y="-20%" width="140%" height="140%"><feDropShadow dx="0" dy="3" stdDeviation="4" flood-color="#0A2742" flood-opacity="0.18"/></filter>
  <linearGradient id="grad" x1="0" x2="1" y1="0" y2="1"><stop offset="0" stop-color="#0B74C8"/><stop offset="0.55" stop-color="#00A7A5"/><stop offset="1" stop-color="#28A745"/></linearGradient>
</defs>
<rect width="1600" height="900" fill="#F8FBFF"/>
<rect x="20" y="20" width="1560" height="860" rx="24" fill="white" stroke="#0B74C8" stroke-width="3"/>
<text x="70" y="75" font-family="Arial, Helvetica, sans-serif" font-weight="800" font-size="36" fill="#073B6F">02 - System Architecture Overview</text>
<text x="70" y="112" font-family="Arial, Helvetica, sans-serif" font-size="18" fill="#475569">Layered view of user interfaces, platform engines, infrastructure, and deployment targets.</text>
<line x1="70" y1="130" x2="1530" y2="130" stroke="#00A7A5" stroke-width="4"/>
<rect x="90" y="170" width="1420" height="70" rx="12" fill="#EAF6FF" stroke="#0B74C8" stroke-width="2" filter="url(#shadow)"/><text x="800.0" y="205.0" text-anchor="middle" font-family="Arial" font-size="21" font-weight="700" fill="#0F172A">Clients and Interfaces: Web Portal - Desktop Agent - Mobile - API Clients - Third Party Integrations</text><defs><marker id="arrow8082" markerWidth="10" markerHeight="8" refX="9" refY="4" orient="auto"><path d="M0,0 L10,4 L0,8 Z" fill="#073B6F"/></marker></defs><line x1="800" y1="240" x2="800" y2="285" stroke="#073B6F" stroke-width="3" marker-end="url(#arrow8082)"/><rect x="250" y="285" width="1100" height="95" rx="12" fill="#DDF7F3" stroke="#00A7A5" stroke-width="2" filter="url(#shadow)"/><text x="800.0" y="332.5" text-anchor="middle" font-family="Arial" font-size="22" font-weight="700" fill="#0F172A">AQELYN Platform: Dashboards - Reporting - Analytics - Automation - Case Management</text><defs><marker id="arrow36013" markerWidth="10" markerHeight="8" refX="9" refY="4" orient="auto"><path d="M0,0 L10,4 L0,8 Z" fill="#073B6F"/></marker></defs><line x1="800" y1="380" x2="800" y2="430" stroke="#073B6F" stroke-width="3" marker-end="url(#arrow36013)"/><rect x="115" y="430" width="205" height="85" rx="12" fill="#EAF6FF" stroke="#0B74C8" stroke-width="2" filter="url(#shadow)"/><text x="217.5" y="472.5" text-anchor="middle" font-family="Arial" font-size="18" font-weight="700" fill="#0F172A">Core Platform</text><rect x="350" y="430" width="205" height="85" rx="12" fill="#E9FFF1" stroke="#28A745" stroke-width="2" filter="url(#shadow)"/><text x="452.5" y="472.5" text-anchor="middle" font-family="Arial" font-size="18" font-weight="700" fill="#0F172A">Identity Platform</text><rect x="585" y="430" width="205" height="85" rx="12" fill="#FFF6E6" stroke="#F5A623" stroke-width="2" filter="url(#shadow)"/><text x="687.5" y="472.5" text-anchor="middle" font-family="Arial" font-size="18" font-weight="700" fill="#0F172A">Endpoint Platform</text><rect x="820" y="430" width="205" height="85" rx="12" fill="#F4EDFF" stroke="#7B61FF" stroke-width="2" filter="url(#shadow)"/><text x="922.5" y="472.5" text-anchor="middle" font-family="Arial" font-size="18" font-weight="700" fill="#0F172A">Exposure Platform</text><rect x="1055" y="430" width="205" height="85" rx="12" fill="#EEF2FF" stroke="#073B6F" stroke-width="2" filter="url(#shadow)"/><text x="1157.5" y="461.7" text-anchor="middle" font-family="Arial" font-size="18" font-weight="700" fill="#0F172A">Automation</text><text x="1157.5" y="483.3" text-anchor="middle" font-family="Arial" font-size="18" font-weight="700" fill="#0F172A">Platform</text><rect x="1290" y="430" width="205" height="85" rx="12" fill="#E8FFFB" stroke="#00A7A5" stroke-width="2" filter="url(#shadow)"/><text x="1392.5" y="472.5" text-anchor="middle" font-family="Arial" font-size="18" font-weight="700" fill="#0F172A">AI Platform</text><defs><marker id="arrow93102" markerWidth="10" markerHeight="8" refX="9" refY="4" orient="auto"><path d="M0,0 L10,4 L0,8 Z" fill="#073B6F"/></marker></defs><line x1="800" y1="515" x2="800" y2="570" stroke="#073B6F" stroke-width="3" marker-end="url(#arrow93102)"/><rect x="230" y="570" width="1140" height="90" rx="12" fill="#F8FAFC" stroke="#6B7280" stroke-width="2" filter="url(#shadow)"/><text x="800.0" y="615.0" text-anchor="middle" font-family="Arial" font-size="22" font-weight="700" fill="#0F172A">Infrastructure Layer: Data Store - Message Queue - Search Index - Cache - File Storage - Observability</text><defs><marker id="arrow21173" markerWidth="10" markerHeight="8" refX="9" refY="4" orient="auto"><path d="M0,0 L10,4 L0,8 Z" fill="#073B6F"/></marker></defs><line x1="800" y1="660" x2="800" y2="720" stroke="#073B6F" stroke-width="3" marker-end="url(#arrow21173)"/><rect x="340" y="720" width="920" height="70" rx="12" fill="#EEF2FF" stroke="#073B6F" stroke-width="2" filter="url(#shadow)"/><text x="800.0" y="755.0" text-anchor="middle" font-family="Arial" font-size="21" font-weight="700" fill="#0F172A">Deployment: Local - VPS - Private Cloud - Public Cloud - Enterprise</text><text x="70" y="850" font-family="Arial" font-size="14" fill="#64748B">AQELYN Architecture Atlas v1.0 - Vector source, PDF and HTML generated from the same atlas model</text></svg>