<svg xmlns="http://www.w3.org/2000/svg" width="1600" height="900" viewBox="0 0 1600 900">
<defs>
  <filter id="shadow" x="-20%" y="-20%" width="140%" height="140%"><feDropShadow dx="0" dy="3" stdDeviation="4" flood-color="#0A2742" flood-opacity="0.18"/></filter>
  <linearGradient id="grad" x1="0" x2="1" y1="0" y2="1"><stop offset="0" stop-color="#0B74C8"/><stop offset="0.55" stop-color="#00A7A5"/><stop offset="1" stop-color="#28A745"/></linearGradient>
</defs>
<rect width="1600" height="900" fill="#F8FBFF"/>
<rect x="20" y="20" width="1560" height="860" rx="24" fill="white" stroke="#0B74C8" stroke-width="3"/>
<text x="70" y="75" font-family="Arial, Helvetica, sans-serif" font-weight="800" font-size="36" fill="#073B6F">03 - Engineering Archive Dependency Graph</text>
<text x="70" y="112" font-family="Arial, Helvetica, sans-serif" font-size="18" fill="#475569">High level dependency chain from core primitives to exposure and endpoint engines.</text>
<line x1="70" y1="130" x2="1530" y2="130" stroke="#00A7A5" stroke-width="4"/>
<rect x="685.0" y="170" width="230" height="70" rx="12" fill="#EAF6FF" stroke="#0B74C8" stroke-width="2" filter="url(#shadow)"/><text x="800.0" y="205.0" text-anchor="middle" font-family="Arial" font-size="17" font-weight="700" fill="#0F172A">EA-0001 Kernel</text><rect x="425.0" y="295" width="230" height="70" rx="12" fill="#E9FFF1" stroke="#28A745" stroke-width="2" filter="url(#shadow)"/><text x="540.0" y="330.0" text-anchor="middle" font-family="Arial" font-size="17" font-weight="700" fill="#0F172A">EA-0002 Object Model</text><rect x="685.0" y="295" width="230" height="70" rx="12" fill="#E9FFF1" stroke="#28A745" stroke-width="2" filter="url(#shadow)"/><text x="800.0" y="330.0" text-anchor="middle" font-family="Arial" font-size="17" font-weight="700" fill="#0F172A">EA-0003 Event Bus</text><rect x="945.0" y="295" width="230" height="70" rx="12" fill="#E9FFF1" stroke="#28A745" stroke-width="2" filter="url(#shadow)"/><text x="1060.0" y="330.0" text-anchor="middle" font-family="Arial" font-size="17" font-weight="700" fill="#0F172A">EA-0004 Evidence</text><defs><marker id="arrow76417" markerWidth="10" markerHeight="8" refX="9" refY="4" orient="auto"><path d="M0,0 L10,4 L0,8 Z" fill="#073B6F"/></marker></defs><line x1="800.0" y1="240" x2="540.0" y2="295" stroke="#073B6F" stroke-width="3" marker-end="url(#arrow76417)"/><defs><marker id="arrow80268" markerWidth="10" markerHeight="8" refX="9" refY="4" orient="auto"><path d="M0,0 L10,4 L0,8 Z" fill="#073B6F"/></marker></defs><line x1="800.0" y1="240" x2="800.0" y2="295" stroke="#073B6F" stroke-width="3" marker-end="url(#arrow80268)"/><defs><marker id="arrow62759" markerWidth="10" markerHeight="8" refX="9" refY="4" orient="auto"><path d="M0,0 L10,4 L0,8 Z" fill="#073B6F"/></marker></defs><line x1="800.0" y1="240" x2="1060.0" y2="295" stroke="#073B6F" stroke-width="3" marker-end="url(#arrow62759)"/><rect x="425.0" y="420" width="230" height="70" rx="12" fill="#FFF6E6" stroke="#F5A623" stroke-width="2" filter="url(#shadow)"/><text x="540.0" y="444.8" text-anchor="middle" font-family="Arial" font-size="17" font-weight="700" fill="#0F172A">EA-0005 Knowledge</text><text x="540.0" y="465.2" text-anchor="middle" font-family="Arial" font-size="17" font-weight="700" fill="#0F172A">Graph</text><rect x="685.0" y="420" width="230" height="70" rx="12" fill="#FFF6E6" stroke="#F5A623" stroke-width="2" filter="url(#shadow)"/><text x="800.0" y="455.0" text-anchor="middle" font-family="Arial" font-size="17" font-weight="700" fill="#0F172A">EA-0006 Trust</text><rect x="945.0" y="420" width="230" height="70" rx="12" fill="#FFF6E6" stroke="#F5A623" stroke-width="2" filter="url(#shadow)"/><text x="1060.0" y="455.0" text-anchor="middle" font-family="Arial" font-size="17" font-weight="700" fill="#0F172A">EA-0009 Policy</text><defs><marker id="arrow90412" markerWidth="10" markerHeight="8" refX="9" refY="4" orient="auto"><path d="M0,0 L10,4 L0,8 Z" fill="#073B6F"/></marker></defs><line x1="540.0" y1="365" x2="540.0" y2="420" stroke="#073B6F" stroke-width="3" marker-end="url(#arrow90412)"/><defs><marker id="arrow9728" markerWidth="10" markerHeight="8" refX="9" refY="4" orient="auto"><path d="M0,0 L10,4 L0,8 Z" fill="#073B6F"/></marker></defs><line x1="540.0" y1="365" x2="800.0" y2="420" stroke="#073B6F" stroke-width="3" marker-end="url(#arrow9728)"/><defs><marker id="arrow70206" markerWidth="10" markerHeight="8" refX="9" refY="4" orient="auto"><path d="M0,0 L10,4 L0,8 Z" fill="#073B6F"/></marker></defs><line x1="800.0" y1="365" x2="540.0" y2="420" stroke="#073B6F" stroke-width="3" marker-end="url(#arrow70206)"/><defs><marker id="arrow74103" markerWidth="10" markerHeight="8" refX="9" refY="4" orient="auto"><path d="M0,0 L10,4 L0,8 Z" fill="#073B6F"/></marker></defs><line x1="800.0" y1="365" x2="800.0" y2="420" stroke="#073B6F" stroke-width="3" marker-end="url(#arrow74103)"/><defs><marker id="arrow1080" markerWidth="10" markerHeight="8" refX="9" refY="4" orient="auto"><path d="M0,0 L10,4 L0,8 Z" fill="#073B6F"/></marker></defs><line x1="800.0" y1="365" x2="1060.0" y2="420" stroke="#073B6F" stroke-width="3" marker-end="url(#arrow1080)"/><defs><marker id="arrow3852" markerWidth="10" markerHeight="8" refX="9" refY="4" orient="auto"><path d="M0,0 L10,4 L0,8 Z" fill="#073B6F"/></marker></defs><line x1="1060.0" y1="365" x2="800.0" y2="420" stroke="#073B6F" stroke-width="3" marker-end="url(#arrow3852)"/><defs><marker id="arrow17916" markerWidth="10" markerHeight="8" refX="9" refY="4" orient="auto"><path d="M0,0 L10,4 L0,8 Z" fill="#073B6F"/></marker></defs><line x1="1060.0" y1="365" x2="1060.0" y2="420" stroke="#073B6F" stroke-width="3" marker-end="url(#arrow17916)"/><rect x="295.0" y="545" width="230" height="70" rx="12" fill="#F4EDFF" stroke="#7B61FF" stroke-width="2" filter="url(#shadow)"/><text x="410.0" y="580.0" text-anchor="middle" font-family="Arial" font-size="17" font-weight="700" fill="#0F172A">EA-0033 ISPM</text><rect x="555.0" y="545" width="230" height="70" rx="12" fill="#F4EDFF" stroke="#7B61FF" stroke-width="2" filter="url(#shadow)"/><text x="670.0" y="569.8" text-anchor="middle" font-family="Arial" font-size="17" font-weight="700" fill="#0F172A">EA-0034 Machine</text><text x="670.0" y="590.1999999999999" text-anchor="middle" font-family="Arial" font-size="17" font-weight="700" fill="#0F172A">Identity</text><rect x="815.0" y="545" width="230" height="70" rx="12" fill="#F4EDFF" stroke="#7B61FF" stroke-width="2" filter="url(#shadow)"/><text x="930.0" y="569.8" text-anchor="middle" font-family="Arial" font-size="17" font-weight="700" fill="#0F172A">EA-0052 Endpoint</text><text x="930.0" y="590.1999999999999" text-anchor="middle" font-family="Arial" font-size="17" font-weight="700" fill="#0F172A">Intelligence</text><rect x="1075.0" y="545" width="230" height="70" rx="12" fill="#F4EDFF" stroke="#7B61FF" stroke-width="2" filter="url(#shadow)"/><text x="1190.0" y="569.8" text-anchor="middle" font-family="Arial" font-size="17" font-weight="700" fill="#0F172A">EA-0054 Web</text><text x="1190.0" y="590.1999999999999" text-anchor="middle" font-family="Arial" font-size="17" font-weight="700" fill="#0F172A">Intelligence</text><defs><marker id="arrow48406" markerWidth="10" markerHeight="8" refX="9" refY="4" orient="auto"><path d="M0,0 L10,4 L0,8 Z" fill="#073B6F"/></marker></defs><line x1="540.0" y1="490" x2="410.0" y2="545" stroke="#073B6F" stroke-width="3" stroke-dasharray="8 6" marker-end="url(#arrow48406)"/><defs><marker id="arrow90910" markerWidth="10" markerHeight="8" refX="9" refY="4" orient="auto"><path d="M0,0 L10,4 L0,8 Z" fill="#073B6F"/></marker></defs><line x1="540.0" y1="490" x2="670.0" y2="545" stroke="#073B6F" stroke-width="3" stroke-dasharray="8 6" marker-end="url(#arrow90910)"/><defs><marker id="arrow63933" markerWidth="10" markerHeight="8" refX="9" refY="4" orient="auto"><path d="M0,0 L10,4 L0,8 Z" fill="#073B6F"/></marker></defs><line x1="540.0" y1="490" x2="930.0" y2="545" stroke="#073B6F" stroke-width="3" stroke-dasharray="8 6" marker-end="url(#arrow63933)"/><defs><marker id="arrow30432" markerWidth="10" markerHeight="8" refX="9" refY="4" orient="auto"><path d="M0,0 L10,4 L0,8 Z" fill="#073B6F"/></marker></defs><line x1="800.0" y1="490" x2="410.0" y2="545" stroke="#073B6F" stroke-width="3" stroke-dasharray="8 6" marker-end="url(#arrow30432)"/><defs><marker id="arrow30292" markerWidth="10" markerHeight="8" refX="9" refY="4" orient="auto"><path d="M0,0 L10,4 L0,8 Z" fill="#073B6F"/></marker></defs><line x1="800.0" y1="490" x2="670.0" y2="545" stroke="#073B6F" stroke-width="3" stroke-dasharray="8 6" marker-end="url(#arrow30292)"/><defs><marker id="arrow60140" markerWidth="10" markerHeight="8" refX="9" refY="4" orient="auto"><path d="M0,0 L10,4 L0,8 Z" fill="#073B6F"/></marker></defs><line x1="800.0" y1="490" x2="930.0" y2="545" stroke="#073B6F" stroke-width="3" stroke-dasharray="8 6" marker-end="url(#arrow60140)"/><defs><marker id="arrow65035" markerWidth="10" markerHeight="8" refX="9" refY="4" orient="auto"><path d="M0,0 L10,4 L0,8 Z" fill="#073B6F"/></marker></defs><line x1="800.0" y1="490" x2="1190.0" y2="545" stroke="#073B6F" stroke-width="3" stroke-dasharray="8 6" marker-end="url(#arrow65035)"/><defs><marker id="arrow13456" markerWidth="10" markerHeight="8" refX="9" refY="4" orient="auto"><path d="M0,0 L10,4 L0,8 Z" fill="#073B6F"/></marker></defs><line x1="1060.0" y1="490" x2="670.0" y2="545" stroke="#073B6F" stroke-width="3" stroke-dasharray="8 6" marker-end="url(#arrow13456)"/><defs><marker id="arrow75176" markerWidth="10" markerHeight="8" refX="9" refY="4" orient="auto"><path d="M0,0 L10,4 L0,8 Z" fill="#073B6F"/></marker></defs><line x1="1060.0" y1="490" x2="930.0" y2="545" stroke="#073B6F" stroke-width="3" stroke-dasharray="8 6" marker-end="url(#arrow75176)"/><defs><marker id="arrow17418" markerWidth="10" markerHeight="8" refX="9" refY="4" orient="auto"><path d="M0,0 L10,4 L0,8 Z" fill="#073B6F"/></marker></defs><line x1="1060.0" y1="490" x2="1190.0" y2="545" stroke="#073B6F" stroke-width="3" stroke-dasharray="8 6" marker-end="url(#arrow17418)"/><rect x="295.0" y="670" width="230" height="70" rx="12" fill="#E8FFFB" stroke="#00A7A5" stroke-width="2" filter="url(#shadow)"/><text x="410.0" y="694.8" text-anchor="middle" font-family="Arial" font-size="17" font-weight="700" fill="#0F172A">EA-0055 Attack</text><text x="410.0" y="715.1999999999999" text-anchor="middle" font-family="Arial" font-size="17" font-weight="700" fill="#0F172A">Surface</text><rect x="555.0" y="670" width="230" height="70" rx="12" fill="#E8FFFB" stroke="#00A7A5" stroke-width="2" filter="url(#shadow)"/><text x="670.0" y="694.8" text-anchor="middle" font-family="Arial" font-size="17" font-weight="700" fill="#0F172A">EA-0056</text><text x="670.0" y="715.1999999999999" text-anchor="middle" font-family="Arial" font-size="17" font-weight="700" fill="#0F172A">Vulnerability</text><rect x="815.0" y="670" width="230" height="70" rx="12" fill="#E8FFFB" stroke="#00A7A5" stroke-width="2" filter="url(#shadow)"/><text x="930.0" y="694.8" text-anchor="middle" font-family="Arial" font-size="17" font-weight="700" fill="#0F172A">EA-0057 Asset</text><text x="930.0" y="715.1999999999999" text-anchor="middle" font-family="Arial" font-size="17" font-weight="700" fill="#0F172A">Discovery</text><rect x="1075.0" y="670" width="230" height="70" rx="12" fill="#E8FFFB" stroke="#00A7A5" stroke-width="2" filter="url(#shadow)"/><text x="1190.0" y="684.6" text-anchor="middle" font-family="Arial" font-size="17" font-weight="700" fill="#0F172A">EA-0051</text><text x="1190.0" y="705.0" text-anchor="middle" font-family="Arial" font-size="17" font-weight="700" fill="#0F172A">Implementation</text><text x="1190.0" y="725.4" text-anchor="middle" font-family="Arial" font-size="17" font-weight="700" fill="#0F172A">Blueprint</text><defs><marker id="arrow38927" markerWidth="10" markerHeight="8" refX="9" refY="4" orient="auto"><path d="M0,0 L10,4 L0,8 Z" fill="#073B6F"/></marker></defs><line x1="410.0" y1="615" x2="410.0" y2="670" stroke="#073B6F" stroke-width="3" stroke-dasharray="8 6" marker-end="url(#arrow38927)"/><defs><marker id="arrow11950" markerWidth="10" markerHeight="8" refX="9" refY="4" orient="auto"><path d="M0,0 L10,4 L0,8 Z" fill="#073B6F"/></marker></defs><line x1="410.0" y1="615" x2="670.0" y2="670" stroke="#073B6F" stroke-width="3" stroke-dasharray="8 6" marker-end="url(#arrow11950)"/><defs><marker id="arrow43319" markerWidth="10" markerHeight="8" refX="9" refY="4" orient="auto"><path d="M0,0 L10,4 L0,8 Z" fill="#073B6F"/></marker></defs><line x1="670.0" y1="615" x2="410.0" y2="670" stroke="#073B6F" stroke-width="3" stroke-dasharray="8 6" marker-end="url(#arrow43319)"/><defs><marker id="arrow52425" markerWidth="10" markerHeight="8" refX="9" refY="4" orient="auto"><path d="M0,0 L10,4 L0,8 Z" fill="#073B6F"/></marker></defs><line x1="670.0" y1="615" x2="670.0" y2="670" stroke="#073B6F" stroke-width="3" stroke-dasharray="8 6" marker-end="url(#arrow52425)"/><defs><marker id="arrow52565" markerWidth="10" markerHeight="8" refX="9" refY="4" orient="auto"><path d="M0,0 L10,4 L0,8 Z" fill="#073B6F"/></marker></defs><line x1="670.0" y1="615" x2="930.0" y2="670" stroke="#073B6F" stroke-width="3" stroke-dasharray="8 6" marker-end="url(#arrow52565)"/><defs><marker id="arrow43782" markerWidth="10" markerHeight="8" refX="9" refY="4" orient="auto"><path d="M0,0 L10,4 L0,8 Z" fill="#073B6F"/></marker></defs><line x1="930.0" y1="615" x2="670.0" y2="670" stroke="#073B6F" stroke-width="3" stroke-dasharray="8 6" marker-end="url(#arrow43782)"/><defs><marker id="arrow26273" markerWidth="10" markerHeight="8" refX="9" refY="4" orient="auto"><path d="M0,0 L10,4 L0,8 Z" fill="#073B6F"/></marker></defs><line x1="930.0" y1="615" x2="930.0" y2="670" stroke="#073B6F" stroke-width="3" stroke-dasharray="8 6" marker-end="url(#arrow26273)"/><defs><marker id="arrow95495" markerWidth="10" markerHeight="8" refX="9" refY="4" orient="auto"><path d="M0,0 L10,4 L0,8 Z" fill="#073B6F"/></marker></defs><line x1="930.0" y1="615" x2="1190.0" y2="670" stroke="#073B6F" stroke-width="3" stroke-dasharray="8 6" marker-end="url(#arrow95495)"/><defs><marker id="arrow66528" markerWidth="10" markerHeight="8" refX="9" refY="4" orient="auto"><path d="M0,0 L10,4 L0,8 Z" fill="#073B6F"/></marker></defs><line x1="1190.0" y1="615" x2="930.0" y2="670" stroke="#073B6F" stroke-width="3" stroke-dasharray="8 6" marker-end="url(#arrow66528)"/><defs><marker id="arrow55240" markerWidth="10" markerHeight="8" refX="9" refY="4" orient="auto"><path d="M0,0 L10,4 L0,8 Z" fill="#073B6F"/></marker></defs><line x1="1190.0" y1="615" x2="1190.0" y2="670" stroke="#073B6F" stroke-width="3" stroke-dasharray="8 6" marker-end="url(#arrow55240)"/><text x="70" y="850" font-family="Arial" font-size="14" fill="#64748B">AQELYN Architecture Atlas v1.0 - Vector source, PDF and HTML generated from the same atlas model</text></svg>