<svg xmlns="http://www.w3.org/2000/svg" width="1600" height="900" viewBox="0 0 1600 900">
<defs>
  <filter id="shadow" x="-20%" y="-20%" width="140%" height="140%"><feDropShadow dx="0" dy="3" stdDeviation="4" flood-color="#0A2742" flood-opacity="0.18"/></filter>
  <linearGradient id="grad" x1="0" x2="1" y1="0" y2="1"><stop offset="0" stop-color="#0B74C8"/><stop offset="0.55" stop-color="#00A7A5"/><stop offset="1" stop-color="#28A745"/></linearGradient>
</defs>
<rect width="1600" height="900" fill="#F8FBFF"/>
<rect x="20" y="20" width="1560" height="860" rx="24" fill="white" stroke="#0B74C8" stroke-width="3"/>
<text x="70" y="75" font-family="Arial, Helvetica, sans-serif" font-weight="800" font-size="36" fill="#073B6F">04 - Coding and Implementation Roadmap</text>
<text x="70" y="112" font-family="Arial, Helvetica, sans-serif" font-size="18" fill="#475569">Implementation milestones from C-001 foundation runtime to production productization.</text>
<line x1="70" y1="130" x2="1530" y2="130" stroke="#00A7A5" stroke-width="4"/>
<rect x="75" y="165" width="270" height="75" rx="12" fill="#EAF6FF" stroke="#0B74C8" stroke-width="2" filter="url(#shadow)"/><text x="210.0" y="202.5" text-anchor="middle" font-family="Arial" font-size="18" font-weight="700" fill="#0F172A">C-001 Foundation Runtime</text><rect x="390" y="172" width="160" height="60" rx="12" fill="#FFFFFF" stroke="#00A7A5" stroke-width="2" filter="url(#shadow)"/><text x="470.0" y="202.0" text-anchor="middle" font-family="Arial" font-size="14" font-weight="700" fill="#0F172A">Kernel</text><rect x="565" y="172" width="160" height="60" rx="12" fill="#FFFFFF" stroke="#00A7A5" stroke-width="2" filter="url(#shadow)"/><text x="645.0" y="202.0" text-anchor="middle" font-family="Arial" font-size="14" font-weight="700" fill="#0F172A">Object Model</text><rect x="740" y="172" width="160" height="60" rx="12" fill="#FFFFFF" stroke="#00A7A5" stroke-width="2" filter="url(#shadow)"/><text x="820.0" y="202.0" text-anchor="middle" font-family="Arial" font-size="14" font-weight="700" fill="#0F172A">Event Bus</text><rect x="915" y="172" width="160" height="60" rx="12" fill="#FFFFFF" stroke="#00A7A5" stroke-width="2" filter="url(#shadow)"/><text x="995.0" y="202.0" text-anchor="middle" font-family="Arial" font-size="14" font-weight="700" fill="#0F172A">Config</text><rect x="1090" y="172" width="160" height="60" rx="12" fill="#FFFFFF" stroke="#00A7A5" stroke-width="2" filter="url(#shadow)"/><text x="1170.0" y="202.0" text-anchor="middle" font-family="Arial" font-size="14" font-weight="700" fill="#0F172A">Logging</text><rect x="1265" y="172" width="160" height="60" rx="12" fill="#FFFFFF" stroke="#00A7A5" stroke-width="2" filter="url(#shadow)"/><text x="1345.0" y="202.0" text-anchor="middle" font-family="Arial" font-size="14" font-weight="700" fill="#0F172A">Test Harness</text><defs><marker id="arrow94743" markerWidth="10" markerHeight="8" refX="9" refY="4" orient="auto"><path d="M0,0 L10,4 L0,8 Z" fill="#073B6F"/></marker></defs><line x1="210" y1="240" x2="210" y2="273" stroke="#073B6F" stroke-width="3" marker-end="url(#arrow94743)"/><rect x="75" y="270" width="270" height="75" rx="12" fill="#EAF6FF" stroke="#0B74C8" stroke-width="2" filter="url(#shadow)"/><text x="210.0" y="307.5" text-anchor="middle" font-family="Arial" font-size="18" font-weight="700" fill="#0F172A">C-100 Core Platform</text><rect x="390" y="277" width="160" height="60" rx="12" fill="#FFFFFF" stroke="#28A745" stroke-width="2" filter="url(#shadow)"/><text x="470.0" y="307.0" text-anchor="middle" font-family="Arial" font-size="14" font-weight="700" fill="#0F172A">Evidence</text><rect x="565" y="277" width="160" height="60" rx="12" fill="#FFFFFF" stroke="#28A745" stroke-width="2" filter="url(#shadow)"/><text x="645.0" y="298.6" text-anchor="middle" font-family="Arial" font-size="14" font-weight="700" fill="#0F172A">Knowledge</text><text x="645.0" y="315.40000000000003" text-anchor="middle" font-family="Arial" font-size="14" font-weight="700" fill="#0F172A">Graph</text><rect x="740" y="277" width="160" height="60" rx="12" fill="#FFFFFF" stroke="#28A745" stroke-width="2" filter="url(#shadow)"/><text x="820.0" y="307.0" text-anchor="middle" font-family="Arial" font-size="14" font-weight="700" fill="#0F172A">Trust</text><rect x="915" y="277" width="160" height="60" rx="12" fill="#FFFFFF" stroke="#28A745" stroke-width="2" filter="url(#shadow)"/><text x="995.0" y="307.0" text-anchor="middle" font-family="Arial" font-size="14" font-weight="700" fill="#0F172A">Policy</text><rect x="1090" y="277" width="160" height="60" rx="12" fill="#FFFFFF" stroke="#28A745" stroke-width="2" filter="url(#shadow)"/><text x="1170.0" y="307.0" text-anchor="middle" font-family="Arial" font-size="14" font-weight="700" fill="#0F172A">Workflow</text><rect x="1265" y="277" width="160" height="60" rx="12" fill="#FFFFFF" stroke="#28A745" stroke-width="2" filter="url(#shadow)"/><text x="1345.0" y="307.0" text-anchor="middle" font-family="Arial" font-size="14" font-weight="700" fill="#0F172A">Mission</text><defs><marker id="arrow59007" markerWidth="10" markerHeight="8" refX="9" refY="4" orient="auto"><path d="M0,0 L10,4 L0,8 Z" fill="#073B6F"/></marker></defs><line x1="210" y1="345" x2="210" y2="378" stroke="#073B6F" stroke-width="3" marker-end="url(#arrow59007)"/><rect x="75" y="375" width="270" height="75" rx="12" fill="#EAF6FF" stroke="#0B74C8" stroke-width="2" filter="url(#shadow)"/><text x="210.0" y="412.5" text-anchor="middle" font-family="Arial" font-size="18" font-weight="700" fill="#0F172A">C-200 Identity Platform</text><rect x="390" y="382" width="160" height="60" rx="12" fill="#FFFFFF" stroke="#F5A623" stroke-width="2" filter="url(#shadow)"/><text x="470.0" y="412.0" text-anchor="middle" font-family="Arial" font-size="14" font-weight="700" fill="#0F172A">ISPM</text><rect x="565" y="382" width="160" height="60" rx="12" fill="#FFFFFF" stroke="#F5A623" stroke-width="2" filter="url(#shadow)"/><text x="645.0" y="403.6" text-anchor="middle" font-family="Arial" font-size="14" font-weight="700" fill="#0F172A">Machine</text><text x="645.0" y="420.40000000000003" text-anchor="middle" font-family="Arial" font-size="14" font-weight="700" fill="#0F172A">Identity</text><rect x="740" y="382" width="160" height="60" rx="12" fill="#FFFFFF" stroke="#F5A623" stroke-width="2" filter="url(#shadow)"/><text x="820.0" y="403.6" text-anchor="middle" font-family="Arial" font-size="14" font-weight="700" fill="#0F172A">Identity</text><text x="820.0" y="420.40000000000003" text-anchor="middle" font-family="Arial" font-size="14" font-weight="700" fill="#0F172A">Inventory</text><rect x="915" y="382" width="160" height="60" rx="12" fill="#FFFFFF" stroke="#F5A623" stroke-width="2" filter="url(#shadow)"/><text x="995.0" y="412.0" text-anchor="middle" font-family="Arial" font-size="14" font-weight="700" fill="#0F172A">Governance</text><defs><marker id="arrow17163" markerWidth="10" markerHeight="8" refX="9" refY="4" orient="auto"><path d="M0,0 L10,4 L0,8 Z" fill="#073B6F"/></marker></defs><line x1="210" y1="450" x2="210" y2="483" stroke="#073B6F" stroke-width="3" marker-end="url(#arrow17163)"/><rect x="75" y="480" width="270" height="75" rx="12" fill="#EAF6FF" stroke="#0B74C8" stroke-width="2" filter="url(#shadow)"/><text x="210.0" y="517.5" text-anchor="middle" font-family="Arial" font-size="18" font-weight="700" fill="#0F172A">C-300 Endpoint Platform</text><rect x="390" y="487" width="160" height="60" rx="12" fill="#FFFFFF" stroke="#7B61FF" stroke-width="2" filter="url(#shadow)"/><text x="470.0" y="517.0" text-anchor="middle" font-family="Arial" font-size="14" font-weight="700" fill="#0F172A">Endpoint Agent</text><rect x="565" y="487" width="160" height="60" rx="12" fill="#FFFFFF" stroke="#7B61FF" stroke-width="2" filter="url(#shadow)"/><text x="645.0" y="517.0" text-anchor="middle" font-family="Arial" font-size="14" font-weight="700" fill="#0F172A">Assessment</text><rect x="740" y="487" width="160" height="60" rx="12" fill="#FFFFFF" stroke="#7B61FF" stroke-width="2" filter="url(#shadow)"/><text x="820.0" y="508.6" text-anchor="middle" font-family="Arial" font-size="14" font-weight="700" fill="#0F172A">Asset</text><text x="820.0" y="525.4" text-anchor="middle" font-family="Arial" font-size="14" font-weight="700" fill="#0F172A">Inventory</text><rect x="915" y="487" width="160" height="60" rx="12" fill="#FFFFFF" stroke="#7B61FF" stroke-width="2" filter="url(#shadow)"/><text x="995.0" y="508.6" text-anchor="middle" font-family="Arial" font-size="14" font-weight="700" fill="#0F172A">Local</text><text x="995.0" y="525.4" text-anchor="middle" font-family="Arial" font-size="14" font-weight="700" fill="#0F172A">Telemetry</text><defs><marker id="arrow68724" markerWidth="10" markerHeight="8" refX="9" refY="4" orient="auto"><path d="M0,0 L10,4 L0,8 Z" fill="#073B6F"/></marker></defs><line x1="210" y1="555" x2="210" y2="588" stroke="#073B6F" stroke-width="3" marker-end="url(#arrow68724)"/><rect x="75" y="585" width="270" height="75" rx="12" fill="#EAF6FF" stroke="#0B74C8" stroke-width="2" filter="url(#shadow)"/><text x="210.0" y="622.5" text-anchor="middle" font-family="Arial" font-size="18" font-weight="700" fill="#0F172A">C-400 Exposure Platform</text><rect x="390" y="592" width="160" height="60" rx="12" fill="#FFFFFF" stroke="#00A7A5" stroke-width="2" filter="url(#shadow)"/><text x="470.0" y="613.6" text-anchor="middle" font-family="Arial" font-size="14" font-weight="700" fill="#0F172A">Web</text><text x="470.0" y="630.4" text-anchor="middle" font-family="Arial" font-size="14" font-weight="700" fill="#0F172A">Intelligence</text><rect x="565" y="592" width="160" height="60" rx="12" fill="#FFFFFF" stroke="#00A7A5" stroke-width="2" filter="url(#shadow)"/><text x="645.0" y="622.0" text-anchor="middle" font-family="Arial" font-size="14" font-weight="700" fill="#0F172A">Attack Surface</text><rect x="740" y="592" width="160" height="60" rx="12" fill="#FFFFFF" stroke="#00A7A5" stroke-width="2" filter="url(#shadow)"/><text x="820.0" y="622.0" text-anchor="middle" font-family="Arial" font-size="14" font-weight="700" fill="#0F172A">Vulnerability</text><rect x="915" y="592" width="160" height="60" rx="12" fill="#FFFFFF" stroke="#00A7A5" stroke-width="2" filter="url(#shadow)"/><text x="995.0" y="613.6" text-anchor="middle" font-family="Arial" font-size="14" font-weight="700" fill="#0F172A">External</text><text x="995.0" y="630.4" text-anchor="middle" font-family="Arial" font-size="14" font-weight="700" fill="#0F172A">Signals</text><defs><marker id="arrow3671" markerWidth="10" markerHeight="8" refX="9" refY="4" orient="auto"><path d="M0,0 L10,4 L0,8 Z" fill="#073B6F"/></marker></defs><line x1="210" y1="660" x2="210" y2="693" stroke="#073B6F" stroke-width="3" marker-end="url(#arrow3671)"/><rect x="75" y="690" width="270" height="75" rx="12" fill="#EAF6FF" stroke="#0B74C8" stroke-width="2" filter="url(#shadow)"/><text x="210.0" y="727.5" text-anchor="middle" font-family="Arial" font-size="18" font-weight="700" fill="#0F172A">C-500 Productization</text><rect x="390" y="697" width="160" height="60" rx="12" fill="#FFFFFF" stroke="#28A745" stroke-width="2" filter="url(#shadow)"/><text x="470.0" y="727.0" text-anchor="middle" font-family="Arial" font-size="14" font-weight="700" fill="#0F172A">API Gateway</text><rect x="565" y="697" width="160" height="60" rx="12" fill="#FFFFFF" stroke="#28A745" stroke-width="2" filter="url(#shadow)"/><text x="645.0" y="727.0" text-anchor="middle" font-family="Arial" font-size="14" font-weight="700" fill="#0F172A">Web Portal</text><rect x="740" y="697" width="160" height="60" rx="12" fill="#FFFFFF" stroke="#28A745" stroke-width="2" filter="url(#shadow)"/><text x="820.0" y="727.0" text-anchor="middle" font-family="Arial" font-size="14" font-weight="700" fill="#0F172A">Auth</text><rect x="915" y="697" width="160" height="60" rx="12" fill="#FFFFFF" stroke="#28A745" stroke-width="2" filter="url(#shadow)"/><text x="995.0" y="727.0" text-anchor="middle" font-family="Arial" font-size="14" font-weight="700" fill="#0F172A">CI/CD</text><rect x="1090" y="697" width="160" height="60" rx="12" fill="#FFFFFF" stroke="#28A745" stroke-width="2" filter="url(#shadow)"/><text x="1170.0" y="727.0" text-anchor="middle" font-family="Arial" font-size="14" font-weight="700" fill="#0F172A">Deployment</text><rect x="1265" y="697" width="160" height="60" rx="12" fill="#FFFFFF" stroke="#28A745" stroke-width="2" filter="url(#shadow)"/><text x="1345.0" y="727.0" text-anchor="middle" font-family="Arial" font-size="14" font-weight="700" fill="#0F172A">Operations</text><text x="70" y="850" font-family="Arial" font-size="14" fill="#64748B">AQELYN Architecture Atlas v1.0 - Vector source, PDF and HTML generated from the same atlas model</text></svg>