<svg xmlns="http://www.w3.org/2000/svg" width="1600" height="900" viewBox="0 0 1600 900">
<defs>
  <filter id="shadow" x="-20%" y="-20%" width="140%" height="140%"><feDropShadow dx="0" dy="3" stdDeviation="4" flood-color="#0A2742" flood-opacity="0.18"/></filter>
  <linearGradient id="grad" x1="0" x2="1" y1="0" y2="1"><stop offset="0" stop-color="#0B74C8"/><stop offset="0.55" stop-color="#00A7A5"/><stop offset="1" stop-color="#28A745"/></linearGradient>
</defs>
<rect width="1600" height="900" fill="#F8FBFF"/>
<rect x="20" y="20" width="1560" height="860" rx="24" fill="white" stroke="#0B74C8" stroke-width="3"/>
<text x="70" y="75" font-family="Arial, Helvetica, sans-serif" font-weight="800" font-size="36" fill="#073B6F">05 - Runtime Architecture</text>
<text x="70" y="112" font-family="Arial, Helvetica, sans-serif" font-size="18" fill="#475569">Runtime services, bus, storage, and consumers.</text>
<line x1="70" y1="130" x2="1530" y2="130" stroke="#00A7A5" stroke-width="4"/>
<rect x="630" y="395" width="340" height="110" rx="12" fill="url(#grad)" stroke="#073B6F" stroke-width="2" filter="url(#shadow)"/><text x="800.0" y="450.0" text-anchor="middle" font-family="Arial" font-size="22" font-weight="700" fill="#0F172A">Runtime Architecture</text><rect x="710.0" y="130.0" width="180" height="70" rx="12" fill="#EAF6FF" stroke="#0B74C8" stroke-width="2" filter="url(#shadow)"/><text x="800.0" y="165.0" text-anchor="middle" font-family="Arial" font-size="15" font-weight="700" fill="#0F172A">Data Sources</text><defs><marker id="arrow54303" markerWidth="10" markerHeight="8" refX="9" refY="4" orient="auto"><path d="M0,0 L10,4 L0,8 Z" fill="#6B7280"/></marker></defs><line x1="800.0" y1="165.0" x2="970" y2="450" stroke="#6B7280" stroke-width="3" stroke-dasharray="8 6" marker-end="url(#arrow54303)"/><rect x="893.1944687606638" y="196.67733371109128" width="180" height="70" rx="12" fill="#E9FFF1" stroke="#28A745" stroke-width="2" filter="url(#shadow)"/><text x="983.1944687606638" y="231.67733371109128" text-anchor="middle" font-family="Arial" font-size="15" font-weight="700" fill="#0F172A">Collectors</text><defs><marker id="arrow30876" markerWidth="10" markerHeight="8" refX="9" refY="4" orient="auto"><path d="M0,0 L10,4 L0,8 Z" fill="#6B7280"/></marker></defs><line x1="983.1944687606638" y1="231.67733371109128" x2="630" y2="450" stroke="#6B7280" stroke-width="3" stroke-dasharray="8 6" marker-end="url(#arrow30876)"/><rect x="990.6702096084794" y="365.51026936492485" width="180" height="70" rx="12" fill="#FFF6E6" stroke="#F5A623" stroke-width="2" filter="url(#shadow)"/><text x="1080.6702096084794" y="400.51026936492485" text-anchor="middle" font-family="Arial" font-size="15" font-weight="700" fill="#0F172A">Normalization</text><defs><marker id="arrow23630" markerWidth="10" markerHeight="8" refX="9" refY="4" orient="auto"><path d="M0,0 L10,4 L0,8 Z" fill="#6B7280"/></marker></defs><line x1="1080.6702096084794" y1="400.51026936492485" x2="630" y2="450" stroke="#6B7280" stroke-width="3" stroke-dasharray="8 6" marker-end="url(#arrow23630)"/><rect x="956.817240078565" y="557.5" width="180" height="70" rx="12" fill="#F4EDFF" stroke="#7B61FF" stroke-width="2" filter="url(#shadow)"/><text x="1046.817240078565" y="592.5" text-anchor="middle" font-family="Arial" font-size="15" font-weight="700" fill="#0F172A">Event Bus</text><defs><marker id="arrow30248" markerWidth="10" markerHeight="8" refX="9" refY="4" orient="auto"><path d="M0,0 L10,4 L0,8 Z" fill="#6B7280"/></marker></defs><line x1="1046.817240078565" y1="592.5" x2="630" y2="450" stroke="#6B7280" stroke-width="3" stroke-dasharray="8 6" marker-end="url(#arrow30248)"/><rect x="807.4757408478156" y="682.8123969239839" width="180" height="70" rx="12" fill="#E8FFFB" stroke="#00A7A5" stroke-width="2" filter="url(#shadow)"/><text x="897.4757408478156" y="717.8123969239839" text-anchor="middle" font-family="Arial" font-size="15" font-weight="700" fill="#0F172A">Correlation</text><defs><marker id="arrow43053" markerWidth="10" markerHeight="8" refX="9" refY="4" orient="auto"><path d="M0,0 L10,4 L0,8 Z" fill="#6B7280"/></marker></defs><line x1="897.4757408478156" y1="717.8123969239839" x2="630" y2="450" stroke="#6B7280" stroke-width="3" stroke-dasharray="8 6" marker-end="url(#arrow43053)"/><rect x="612.5242591521844" y="682.8123969239839" width="180" height="70" rx="12" fill="#EAF6FF" stroke="#0B74C8" stroke-width="2" filter="url(#shadow)"/><text x="702.5242591521844" y="717.8123969239839" text-anchor="middle" font-family="Arial" font-size="15" font-weight="700" fill="#0F172A">Storage</text><defs><marker id="arrow87778" markerWidth="10" markerHeight="8" refX="9" refY="4" orient="auto"><path d="M0,0 L10,4 L0,8 Z" fill="#6B7280"/></marker></defs><line x1="702.5242591521844" y1="717.8123969239839" x2="970" y2="450" stroke="#6B7280" stroke-width="3" stroke-dasharray="8 6" marker-end="url(#arrow87778)"/><rect x="463.18275992143504" y="557.5000000000001" width="180" height="70" rx="12" fill="#E9FFF1" stroke="#28A745" stroke-width="2" filter="url(#shadow)"/><text x="553.182759921435" y="592.5000000000001" text-anchor="middle" font-family="Arial" font-size="15" font-weight="700" fill="#0F172A">Analytics</text><defs><marker id="arrow5298" markerWidth="10" markerHeight="8" refX="9" refY="4" orient="auto"><path d="M0,0 L10,4 L0,8 Z" fill="#6B7280"/></marker></defs><line x1="553.182759921435" y1="592.5000000000001" x2="970" y2="450" stroke="#6B7280" stroke-width="3" stroke-dasharray="8 6" marker-end="url(#arrow5298)"/><rect x="429.32979039152065" y="365.51026936492497" width="180" height="70" rx="12" fill="#FFF6E6" stroke="#F5A623" stroke-width="2" filter="url(#shadow)"/><text x="519.3297903915206" y="400.51026936492497" text-anchor="middle" font-family="Arial" font-size="15" font-weight="700" fill="#0F172A">Response</text><defs><marker id="arrow26932" markerWidth="10" markerHeight="8" refX="9" refY="4" orient="auto"><path d="M0,0 L10,4 L0,8 Z" fill="#6B7280"/></marker></defs><line x1="519.3297903915206" y1="400.51026936492497" x2="970" y2="450" stroke="#6B7280" stroke-width="3" stroke-dasharray="8 6" marker-end="url(#arrow26932)"/><rect x="526.8055312393362" y="196.6773337110913" width="180" height="70" rx="12" fill="#F4EDFF" stroke="#7B61FF" stroke-width="2" filter="url(#shadow)"/><text x="616.8055312393362" y="231.6773337110913" text-anchor="middle" font-family="Arial" font-size="15" font-weight="700" fill="#0F172A">Dashboards</text><defs><marker id="arrow26869" markerWidth="10" markerHeight="8" refX="9" refY="4" orient="auto"><path d="M0,0 L10,4 L0,8 Z" fill="#6B7280"/></marker></defs><line x1="616.8055312393362" y1="231.6773337110913" x2="970" y2="450" stroke="#6B7280" stroke-width="3" stroke-dasharray="8 6" marker-end="url(#arrow26869)"/><text x="70" y="850" font-family="Arial" font-size="14" fill="#64748B">Project AQELYN Architecture Atlas v1.0 - Vector source, PDF and HTML generated from the same atlas model</text></svg>