<svg xmlns="http://www.w3.org/2000/svg" width="1600" height="900" viewBox="0 0 1600 900">
<defs>
  <filter id="shadow" x="-20%" y="-20%" width="140%" height="140%"><feDropShadow dx="0" dy="3" stdDeviation="4" flood-color="#0A2742" flood-opacity="0.18"/></filter>
  <linearGradient id="grad" x1="0" x2="1" y1="0" y2="1"><stop offset="0" stop-color="#0B74C8"/><stop offset="0.55" stop-color="#00A7A5"/><stop offset="1" stop-color="#28A745"/></linearGradient>
</defs>
<rect width="1600" height="900" fill="#F8FBFF"/>
<rect x="20" y="20" width="1560" height="860" rx="24" fill="white" stroke="#0B74C8" stroke-width="3"/>
<text x="70" y="75" font-family="Arial, Helvetica, sans-serif" font-weight="800" font-size="36" fill="#073B6F">08 - Deployment Architecture</text>
<text x="70" y="112" font-family="Arial, Helvetica, sans-serif" font-size="18" fill="#475569">Local, VPS, private cloud, public cloud, and enterprise deployment modes.</text>
<line x1="70" y1="130" x2="1530" y2="130" stroke="#00A7A5" stroke-width="4"/>
<rect x="630" y="395" width="340" height="110" rx="12" fill="url(#grad)" stroke="#073B6F" stroke-width="2" filter="url(#shadow)"/><text x="800.0" y="450.0" text-anchor="middle" font-family="Arial" font-size="22" font-weight="700" fill="#0F172A">Deployment Architecture</text><rect x="710.0" y="130.0" width="180" height="70" rx="12" fill="#EAF6FF" stroke="#0B74C8" stroke-width="2" filter="url(#shadow)"/><text x="800.0" y="165.0" text-anchor="middle" font-family="Arial" font-size="15" font-weight="700" fill="#0F172A">Local Agent</text><defs><marker id="arrow54303" markerWidth="10" markerHeight="8" refX="9" refY="4" orient="auto"><path d="M0,0 L10,4 L0,8 Z" fill="#6B7280"/></marker></defs><line x1="800.0" y1="165.0" x2="970" y2="450" stroke="#6B7280" stroke-width="3" stroke-dasharray="8 6" marker-end="url(#arrow54303)"/><rect x="911.5254326381661" y="213.47456736183398" width="180" height="70" rx="12" fill="#E9FFF1" stroke="#28A745" stroke-width="2" filter="url(#shadow)"/><text x="1001.5254326381661" y="248.47456736183398" text-anchor="middle" font-family="Arial" font-size="15" font-weight="700" fill="#0F172A">VPS Node</text><defs><marker id="arrow4057" markerWidth="10" markerHeight="8" refX="9" refY="4" orient="auto"><path d="M0,0 L10,4 L0,8 Z" fill="#6B7280"/></marker></defs><line x1="1001.5254326381661" y1="248.47456736183398" x2="630" y2="450" stroke="#6B7280" stroke-width="3" stroke-dasharray="8 6" marker-end="url(#arrow4057)"/><rect x="995.0" y="415.0" width="180" height="70" rx="12" fill="#FFF6E6" stroke="#F5A623" stroke-width="2" filter="url(#shadow)"/><text x="1085.0" y="450.0" text-anchor="middle" font-family="Arial" font-size="15" font-weight="700" fill="#0F172A">Private Cloud</text><defs><marker id="arrow63998" markerWidth="10" markerHeight="8" refX="9" refY="4" orient="auto"><path d="M0,0 L10,4 L0,8 Z" fill="#6B7280"/></marker></defs><line x1="1085.0" y1="450.0" x2="630" y2="450" stroke="#6B7280" stroke-width="3" stroke-dasharray="8 6" marker-end="url(#arrow63998)"/><rect x="911.5254326381661" y="616.525432638166" width="180" height="70" rx="12" fill="#F4EDFF" stroke="#7B61FF" stroke-width="2" filter="url(#shadow)"/><text x="1001.5254326381661" y="651.525432638166" text-anchor="middle" font-family="Arial" font-size="15" font-weight="700" fill="#0F172A">Public Cloud</text><defs><marker id="arrow53927" markerWidth="10" markerHeight="8" refX="9" refY="4" orient="auto"><path d="M0,0 L10,4 L0,8 Z" fill="#6B7280"/></marker></defs><line x1="1001.5254326381661" y1="651.525432638166" x2="630" y2="450" stroke="#6B7280" stroke-width="3" stroke-dasharray="8 6" marker-end="url(#arrow53927)"/><rect x="710.0" y="700.0" width="180" height="70" rx="12" fill="#E8FFFB" stroke="#00A7A5" stroke-width="2" filter="url(#shadow)"/><text x="800.0" y="735.0" text-anchor="middle" font-family="Arial" font-size="15" font-weight="700" fill="#0F172A">Enterprise</text><defs><marker id="arrow77142" markerWidth="10" markerHeight="8" refX="9" refY="4" orient="auto"><path d="M0,0 L10,4 L0,8 Z" fill="#6B7280"/></marker></defs><line x1="800.0" y1="735.0" x2="970" y2="450" stroke="#6B7280" stroke-width="3" stroke-dasharray="8 6" marker-end="url(#arrow77142)"/><rect x="508.47456736183403" y="616.5254326381661" width="180" height="70" rx="12" fill="#EAF6FF" stroke="#0B74C8" stroke-width="2" filter="url(#shadow)"/><text x="598.474567361834" y="651.5254326381661" text-anchor="middle" font-family="Arial" font-size="15" font-weight="700" fill="#0F172A">SOC</text><defs><marker id="arrow52932" markerWidth="10" markerHeight="8" refX="9" refY="4" orient="auto"><path d="M0,0 L10,4 L0,8 Z" fill="#6B7280"/></marker></defs><line x1="598.474567361834" y1="651.5254326381661" x2="970" y2="450" stroke="#6B7280" stroke-width="3" stroke-dasharray="8 6" marker-end="url(#arrow52932)"/><rect x="425.0" y="415.00000000000006" width="180" height="70" rx="12" fill="#E9FFF1" stroke="#28A745" stroke-width="2" filter="url(#shadow)"/><text x="515.0" y="450.00000000000006" text-anchor="middle" font-family="Arial" font-size="15" font-weight="700" fill="#0F172A">Backup</text><defs><marker id="arrow42287" markerWidth="10" markerHeight="8" refX="9" refY="4" orient="auto"><path d="M0,0 L10,4 L0,8 Z" fill="#6B7280"/></marker></defs><line x1="515.0" y1="450.00000000000006" x2="970" y2="450" stroke="#6B7280" stroke-width="3" stroke-dasharray="8 6" marker-end="url(#arrow42287)"/><rect x="508.4745673618339" y="213.47456736183398" width="180" height="70" rx="12" fill="#FFF6E6" stroke="#F5A623" stroke-width="2" filter="url(#shadow)"/><text x="598.4745673618339" y="248.47456736183398" text-anchor="middle" font-family="Arial" font-size="15" font-weight="700" fill="#0F172A">Monitor</text><defs><marker id="arrow24633" markerWidth="10" markerHeight="8" refX="9" refY="4" orient="auto"><path d="M0,0 L10,4 L0,8 Z" fill="#6B7280"/></marker></defs><line x1="598.4745673618339" y1="248.47456736183398" x2="970" y2="450" stroke="#6B7280" stroke-width="3" stroke-dasharray="8 6" marker-end="url(#arrow24633)"/><text x="70" y="850" font-family="Arial" font-size="14" fill="#64748B">Project AQELYN Architecture Atlas v1.0 - Vector source, PDF and HTML generated from the same atlas model</text></svg>