<svg xmlns="http://www.w3.org/2000/svg" width="1600" height="900" viewBox="0 0 1600 900">
<defs>
  <filter id="shadow" x="-20%" y="-20%" width="140%" height="140%"><feDropShadow dx="0" dy="3" stdDeviation="4" flood-color="#0A2742" flood-opacity="0.18"/></filter>
  <linearGradient id="grad" x1="0" x2="1" y1="0" y2="1"><stop offset="0" stop-color="#0B74C8"/><stop offset="0.55" stop-color="#00A7A5"/><stop offset="1" stop-color="#28A745"/></linearGradient>
</defs>
<rect width="1600" height="900" fill="#F8FBFF"/>
<rect x="20" y="20" width="1560" height="860" rx="24" fill="white" stroke="#0B74C8" stroke-width="3"/>
<text x="70" y="75" font-family="Arial, Helvetica, sans-serif" font-weight="800" font-size="36" fill="#073B6F">11 - Repository Structure</text>
<text x="70" y="112" font-family="Arial, Helvetica, sans-serif" font-size="18" fill="#475569">Frozen repository hierarchy and artifact flow.</text>
<line x1="70" y1="130" x2="1530" y2="130" stroke="#00A7A5" stroke-width="4"/>
<rect x="630" y="395" width="340" height="110" rx="12" fill="url(#grad)" stroke="#073B6F" stroke-width="2" filter="url(#shadow)"/><text x="800.0" y="450.0" text-anchor="middle" font-family="Arial" font-size="22" font-weight="700" fill="#0F172A">Repository Structure</text><rect x="710.0" y="130.0" width="180" height="70" rx="12" fill="#EAF6FF" stroke="#0B74C8" stroke-width="2" filter="url(#shadow)"/><text x="800.0" y="165.0" text-anchor="middle" font-family="Arial" font-size="15" font-weight="700" fill="#0F172A">archive</text><defs><marker id="arrow54303" markerWidth="10" markerHeight="8" refX="9" refY="4" orient="auto"><path d="M0,0 L10,4 L0,8 Z" fill="#6B7280"/></marker></defs><line x1="800.0" y1="165.0" x2="970" y2="450" stroke="#6B7280" stroke-width="3" stroke-dasharray="8 6" marker-end="url(#arrow54303)"/><rect x="833.6568656485041" y="158.22387264781054" width="180" height="70" rx="12" fill="#E9FFF1" stroke="#28A745" stroke-width="2" filter="url(#shadow)"/><text x="923.6568656485041" y="193.22387264781054" text-anchor="middle" font-family="Arial" font-size="15" font-weight="700" fill="#0F172A">blueprint</text><defs><marker id="arrow71200" markerWidth="10" markerHeight="8" refX="9" refY="4" orient="auto"><path d="M0,0 L10,4 L0,8 Z" fill="#6B7280"/></marker></defs><line x1="923.6568656485041" y1="193.22387264781054" x2="630" y2="450" stroke="#6B7280" stroke-width="3" stroke-dasharray="8 6" marker-end="url(#arrow71200)"/><rect x="932.8219725033885" y="237.30540647026095" width="180" height="70" rx="12" fill="#FFF6E6" stroke="#F5A623" stroke-width="2" filter="url(#shadow)"/><text x="1022.8219725033885" y="272.30540647026095" text-anchor="middle" font-family="Arial" font-size="15" font-weight="700" fill="#0F172A">docs</text><defs><marker id="arrow59397" markerWidth="10" markerHeight="8" refX="9" refY="4" orient="auto"><path d="M0,0 L10,4 L0,8 Z" fill="#6B7280"/></marker></defs><line x1="1022.8219725033885" y1="272.30540647026095" x2="630" y2="450" stroke="#6B7280" stroke-width="3" stroke-dasharray="8 6" marker-end="url(#arrow59397)"/><rect x="987.8544549718197" y="351.5815338224504" width="180" height="70" rx="12" fill="#F4EDFF" stroke="#7B61FF" stroke-width="2" filter="url(#shadow)"/><text x="1077.8544549718197" y="386.5815338224504" text-anchor="middle" font-family="Arial" font-size="15" font-weight="700" fill="#0F172A">src</text><defs><marker id="arrow70888" markerWidth="10" markerHeight="8" refX="9" refY="4" orient="auto"><path d="M0,0 L10,4 L0,8 Z" fill="#6B7280"/></marker></defs><line x1="1077.8544549718197" y1="386.5815338224504" x2="630" y2="450" stroke="#6B7280" stroke-width="3" stroke-dasharray="8 6" marker-end="url(#arrow70888)"/><rect x="987.8544549718197" y="478.4184661775496" width="180" height="70" rx="12" fill="#E8FFFB" stroke="#00A7A5" stroke-width="2" filter="url(#shadow)"/><text x="1077.8544549718197" y="513.4184661775496" text-anchor="middle" font-family="Arial" font-size="15" font-weight="700" fill="#0F172A">tests</text><defs><marker id="arrow18563" markerWidth="10" markerHeight="8" refX="9" refY="4" orient="auto"><path d="M0,0 L10,4 L0,8 Z" fill="#6B7280"/></marker></defs><line x1="1077.8544549718197" y1="513.4184661775496" x2="630" y2="450" stroke="#6B7280" stroke-width="3" stroke-dasharray="8 6" marker-end="url(#arrow18563)"/><rect x="932.8219725033885" y="592.694593529739" width="180" height="70" rx="12" fill="#EAF6FF" stroke="#0B74C8" stroke-width="2" filter="url(#shadow)"/><text x="1022.8219725033885" y="627.694593529739" text-anchor="middle" font-family="Arial" font-size="15" font-weight="700" fill="#0F172A">tools</text><defs><marker id="arrow12024" markerWidth="10" markerHeight="8" refX="9" refY="4" orient="auto"><path d="M0,0 L10,4 L0,8 Z" fill="#6B7280"/></marker></defs><line x1="1022.8219725033885" y1="627.694593529739" x2="630" y2="450" stroke="#6B7280" stroke-width="3" stroke-dasharray="8 6" marker-end="url(#arrow12024)"/><rect x="833.6568656485041" y="671.7761273521894" width="180" height="70" rx="12" fill="#E9FFF1" stroke="#28A745" stroke-width="2" filter="url(#shadow)"/><text x="923.6568656485041" y="706.7761273521894" text-anchor="middle" font-family="Arial" font-size="15" font-weight="700" fill="#0F172A">build</text><defs><marker id="arrow51036" markerWidth="10" markerHeight="8" refX="9" refY="4" orient="auto"><path d="M0,0 L10,4 L0,8 Z" fill="#6B7280"/></marker></defs><line x1="923.6568656485041" y1="706.7761273521894" x2="630" y2="450" stroke="#6B7280" stroke-width="3" stroke-dasharray="8 6" marker-end="url(#arrow51036)"/><rect x="710.0" y="700.0" width="180" height="70" rx="12" fill="#FFF6E6" stroke="#F5A623" stroke-width="2" filter="url(#shadow)"/><text x="800.0" y="735.0" text-anchor="middle" font-family="Arial" font-size="15" font-weight="700" fill="#0F172A">releases</text><defs><marker id="arrow77142" markerWidth="10" markerHeight="8" refX="9" refY="4" orient="auto"><path d="M0,0 L10,4 L0,8 Z" fill="#6B7280"/></marker></defs><line x1="800.0" y1="735.0" x2="970" y2="450" stroke="#6B7280" stroke-width="3" stroke-dasharray="8 6" marker-end="url(#arrow77142)"/><rect x="586.3431343514959" y="671.7761273521894" width="180" height="70" rx="12" fill="#F4EDFF" stroke="#7B61FF" stroke-width="2" filter="url(#shadow)"/><text x="676.3431343514959" y="706.7761273521894" text-anchor="middle" font-family="Arial" font-size="15" font-weight="700" fill="#0F172A">scripts</text><defs><marker id="arrow40556" markerWidth="10" markerHeight="8" refX="9" refY="4" orient="auto"><path d="M0,0 L10,4 L0,8 Z" fill="#6B7280"/></marker></defs><line x1="676.3431343514959" y1="706.7761273521894" x2="970" y2="450" stroke="#6B7280" stroke-width="3" stroke-dasharray="8 6" marker-end="url(#arrow40556)"/><rect x="487.17802749661155" y="592.6945935297391" width="180" height="70" rx="12" fill="#E8FFFB" stroke="#00A7A5" stroke-width="2" filter="url(#shadow)"/><text x="577.1780274966115" y="627.6945935297391" text-anchor="middle" font-family="Arial" font-size="15" font-weight="700" fill="#0F172A">assets</text><defs><marker id="arrow38025" markerWidth="10" markerHeight="8" refX="9" refY="4" orient="auto"><path d="M0,0 L10,4 L0,8 Z" fill="#6B7280"/></marker></defs><line x1="577.1780274966115" y1="627.6945935297391" x2="970" y2="450" stroke="#6B7280" stroke-width="3" stroke-dasharray="8 6" marker-end="url(#arrow38025)"/><rect x="432.1455450281803" y="478.4184661775496" width="180" height="70" rx="12" fill="#EAF6FF" stroke="#0B74C8" stroke-width="2" filter="url(#shadow)"/><text x="522.1455450281803" y="513.4184661775496" text-anchor="middle" font-family="Arial" font-size="15" font-weight="700" fill="#0F172A">examples</text><defs><marker id="arrow7805" markerWidth="10" markerHeight="8" refX="9" refY="4" orient="auto"><path d="M0,0 L10,4 L0,8 Z" fill="#6B7280"/></marker></defs><line x1="522.1455450281803" y1="513.4184661775496" x2="970" y2="450" stroke="#6B7280" stroke-width="3" stroke-dasharray="8 6" marker-end="url(#arrow7805)"/><rect x="432.1455450281802" y="351.5815338224507" width="180" height="70" rx="12" fill="#E9FFF1" stroke="#28A745" stroke-width="2" filter="url(#shadow)"/><text x="522.1455450281802" y="386.5815338224507" text-anchor="middle" font-family="Arial" font-size="15" font-weight="700" fill="#0F172A">plugins</text><defs><marker id="arrow62878" markerWidth="10" markerHeight="8" refX="9" refY="4" orient="auto"><path d="M0,0 L10,4 L0,8 Z" fill="#6B7280"/></marker></defs><line x1="522.1455450281802" y1="386.5815338224507" x2="970" y2="450" stroke="#6B7280" stroke-width="3" stroke-dasharray="8 6" marker-end="url(#arrow62878)"/><rect x="487.17802749661143" y="237.305406470261" width="180" height="70" rx="12" fill="#FFF6E6" stroke="#F5A623" stroke-width="2" filter="url(#shadow)"/><text x="577.1780274966114" y="272.305406470261" text-anchor="middle" font-family="Arial" font-size="15" font-weight="700" fill="#0F172A">sdk</text><defs><marker id="arrow79571" markerWidth="10" markerHeight="8" refX="9" refY="4" orient="auto"><path d="M0,0 L10,4 L0,8 Z" fill="#6B7280"/></marker></defs><line x1="577.1780274966114" y1="272.305406470261" x2="970" y2="450" stroke="#6B7280" stroke-width="3" stroke-dasharray="8 6" marker-end="url(#arrow79571)"/><rect x="586.3431343514961" y="158.22387264781042" width="180" height="70" rx="12" fill="#F4EDFF" stroke="#7B61FF" stroke-width="2" filter="url(#shadow)"/><text x="676.3431343514961" y="193.22387264781042" text-anchor="middle" font-family="Arial" font-size="15" font-weight="700" fill="#0F172A">api</text><defs><marker id="arrow57650" markerWidth="10" markerHeight="8" refX="9" refY="4" orient="auto"><path d="M0,0 L10,4 L0,8 Z" fill="#6B7280"/></marker></defs><line x1="676.3431343514961" y1="193.22387264781042" x2="970" y2="450" stroke="#6B7280" stroke-width="3" stroke-dasharray="8 6" marker-end="url(#arrow57650)"/><text x="70" y="850" font-family="Arial" font-size="14" fill="#64748B">Project AQELYN Architecture Atlas v1.0 - Vector source, PDF and HTML generated from the same atlas model</text></svg>