<svg xmlns="http://www.w3.org/2000/svg" width="1600" height="900" viewBox="0 0 1600 900">
<defs>
  <filter id="shadow" x="-20%" y="-20%" width="140%" height="140%"><feDropShadow dx="0" dy="3" stdDeviation="4" flood-color="#0A2742" flood-opacity="0.18"/></filter>
  <linearGradient id="grad" x1="0" x2="1" y1="0" y2="1"><stop offset="0" stop-color="#0B74C8"/><stop offset="0.55" stop-color="#00A7A5"/><stop offset="1" stop-color="#28A745"/></linearGradient>
</defs>
<rect width="1600" height="900" fill="#F8FBFF"/>
<rect x="20" y="20" width="1560" height="860" rx="24" fill="white" stroke="#0B74C8" stroke-width="3"/>
<text x="70" y="75" font-family="Arial, Helvetica, sans-serif" font-weight="800" font-size="36" fill="#073B6F">12 - Universal Object Model</text>
<text x="70" y="112" font-family="Arial, Helvetica, sans-serif" font-size="18" fill="#475569">Canonical object model supporting all engines.</text>
<line x1="70" y1="130" x2="1530" y2="130" stroke="#00A7A5" stroke-width="4"/>
<rect x="630" y="395" width="340" height="110" rx="12" fill="url(#grad)" stroke="#073B6F" stroke-width="2" filter="url(#shadow)"/><text x="800.0" y="450.0" text-anchor="middle" font-family="Arial" font-size="22" font-weight="700" fill="#0F172A">Universal Object Model</text><rect x="710.0" y="130.0" width="180" height="70" rx="12" fill="#EAF6FF" stroke="#0B74C8" stroke-width="2" filter="url(#shadow)"/><text x="800.0" y="165.0" text-anchor="middle" font-family="Arial" font-size="15" font-weight="700" fill="#0F172A">Base Object</text><defs><marker id="arrow54303" markerWidth="10" markerHeight="8" refX="9" refY="4" orient="auto"><path d="M0,0 L10,4 L0,8 Z" fill="#6B7280"/></marker></defs><line x1="800.0" y1="165.0" x2="970" y2="450" stroke="#6B7280" stroke-width="3" stroke-dasharray="8 6" marker-end="url(#arrow54303)"/><rect x="877.5187969033549" y="184.43015660313998" width="180" height="70" rx="12" fill="#E9FFF1" stroke="#28A745" stroke-width="2" filter="url(#shadow)"/><text x="967.5187969033549" y="219.43015660313998" text-anchor="middle" font-family="Arial" font-size="15" font-weight="700" fill="#0F172A">Identity</text><defs><marker id="arrow68472" markerWidth="10" markerHeight="8" refX="9" refY="4" orient="auto"><path d="M0,0 L10,4 L0,8 Z" fill="#6B7280"/></marker></defs><line x1="967.5187969033549" y1="219.43015660313998" x2="630" y2="450" stroke="#6B7280" stroke-width="3" stroke-dasharray="8 6" marker-end="url(#arrow68472)"/><rect x="981.0511071441188" y="326.93015660314" width="180" height="70" rx="12" fill="#FFF6E6" stroke="#F5A623" stroke-width="2" filter="url(#shadow)"/><text x="1071.0511071441188" y="361.93015660314" text-anchor="middle" font-family="Arial" font-size="15" font-weight="700" fill="#0F172A">Asset</text><defs><marker id="arrow98112" markerWidth="10" markerHeight="8" refX="9" refY="4" orient="auto"><path d="M0,0 L10,4 L0,8 Z" fill="#6B7280"/></marker></defs><line x1="1071.0511071441188" y1="361.93015660314" x2="630" y2="450" stroke="#6B7280" stroke-width="3" stroke-dasharray="8 6" marker-end="url(#arrow98112)"/><rect x="981.0511071441188" y="503.06984339686005" width="180" height="70" rx="12" fill="#F4EDFF" stroke="#7B61FF" stroke-width="2" filter="url(#shadow)"/><text x="1071.0511071441188" y="538.06984339686" text-anchor="middle" font-family="Arial" font-size="15" font-weight="700" fill="#0F172A">Event</text><defs><marker id="arrow3750" markerWidth="10" markerHeight="8" refX="9" refY="4" orient="auto"><path d="M0,0 L10,4 L0,8 Z" fill="#6B7280"/></marker></defs><line x1="1071.0511071441188" y1="538.06984339686" x2="630" y2="450" stroke="#6B7280" stroke-width="3" stroke-dasharray="8 6" marker-end="url(#arrow3750)"/><rect x="877.5187969033549" y="645.56984339686" width="180" height="70" rx="12" fill="#E8FFFB" stroke="#00A7A5" stroke-width="2" filter="url(#shadow)"/><text x="967.5187969033549" y="680.56984339686" text-anchor="middle" font-family="Arial" font-size="15" font-weight="700" fill="#0F172A">Evidence</text><defs><marker id="arrow77542" markerWidth="10" markerHeight="8" refX="9" refY="4" orient="auto"><path d="M0,0 L10,4 L0,8 Z" fill="#6B7280"/></marker></defs><line x1="967.5187969033549" y1="680.56984339686" x2="630" y2="450" stroke="#6B7280" stroke-width="3" stroke-dasharray="8 6" marker-end="url(#arrow77542)"/><rect x="710.0" y="700.0" width="180" height="70" rx="12" fill="#EAF6FF" stroke="#0B74C8" stroke-width="2" filter="url(#shadow)"/><text x="800.0" y="735.0" text-anchor="middle" font-family="Arial" font-size="15" font-weight="700" fill="#0F172A">Policy</text><defs><marker id="arrow77142" markerWidth="10" markerHeight="8" refX="9" refY="4" orient="auto"><path d="M0,0 L10,4 L0,8 Z" fill="#6B7280"/></marker></defs><line x1="800.0" y1="735.0" x2="970" y2="450" stroke="#6B7280" stroke-width="3" stroke-dasharray="8 6" marker-end="url(#arrow77142)"/><rect x="542.4812030966452" y="645.56984339686" width="180" height="70" rx="12" fill="#E9FFF1" stroke="#28A745" stroke-width="2" filter="url(#shadow)"/><text x="632.4812030966452" y="680.56984339686" text-anchor="middle" font-family="Arial" font-size="15" font-weight="700" fill="#0F172A">Finding</text><defs><marker id="arrow49470" markerWidth="10" markerHeight="8" refX="9" refY="4" orient="auto"><path d="M0,0 L10,4 L0,8 Z" fill="#6B7280"/></marker></defs><line x1="632.4812030966452" y1="680.56984339686" x2="970" y2="450" stroke="#6B7280" stroke-width="3" stroke-dasharray="8 6" marker-end="url(#arrow49470)"/><rect x="438.94889285588124" y="503.06984339686005" width="180" height="70" rx="12" fill="#FFF6E6" stroke="#F5A623" stroke-width="2" filter="url(#shadow)"/><text x="528.9488928558812" y="538.06984339686" text-anchor="middle" font-family="Arial" font-size="15" font-weight="700" fill="#0F172A">Risk</text><defs><marker id="arrow74331" markerWidth="10" markerHeight="8" refX="9" refY="4" orient="auto"><path d="M0,0 L10,4 L0,8 Z" fill="#6B7280"/></marker></defs><line x1="528.9488928558812" y1="538.06984339686" x2="970" y2="450" stroke="#6B7280" stroke-width="3" stroke-dasharray="8 6" marker-end="url(#arrow74331)"/><rect x="438.94889285588124" y="326.93015660314" width="180" height="70" rx="12" fill="#F4EDFF" stroke="#7B61FF" stroke-width="2" filter="url(#shadow)"/><text x="528.9488928558812" y="361.93015660314" text-anchor="middle" font-family="Arial" font-size="15" font-weight="700" fill="#0F172A">Recommendation</text><defs><marker id="arrow58526" markerWidth="10" markerHeight="8" refX="9" refY="4" orient="auto"><path d="M0,0 L10,4 L0,8 Z" fill="#6B7280"/></marker></defs><line x1="528.9488928558812" y1="361.93015660314" x2="970" y2="450" stroke="#6B7280" stroke-width="3" stroke-dasharray="8 6" marker-end="url(#arrow58526)"/><rect x="542.4812030966451" y="184.43015660314" width="180" height="70" rx="12" fill="#E8FFFB" stroke="#00A7A5" stroke-width="2" filter="url(#shadow)"/><text x="632.4812030966451" y="219.43015660314" text-anchor="middle" font-family="Arial" font-size="15" font-weight="700" fill="#0F172A">Workflow</text><defs><marker id="arrow11856" markerWidth="10" markerHeight="8" refX="9" refY="4" orient="auto"><path d="M0,0 L10,4 L0,8 Z" fill="#6B7280"/></marker></defs><line x1="632.4812030966451" y1="219.43015660314" x2="970" y2="450" stroke="#6B7280" stroke-width="3" stroke-dasharray="8 6" marker-end="url(#arrow11856)"/><text x="70" y="850" font-family="Arial" font-size="14" fill="#64748B">Project AQELYN Architecture Atlas v1.0 - Vector source, PDF and HTML generated from the same atlas model</text></svg>