<svg xmlns="http://www.w3.org/2000/svg" width="1200" height="800" viewBox="0 0 1200 800">
<rect width="1200" height="800" fill="#f8f8f8"/>
<text x="600" y="40" text-anchor="middle" font-family="Arial" font-size="28" font-weight="bold">EA-0034 Architecture</text>
<defs><marker id="arrow" markerWidth="10" markerHeight="10" refX="9" refY="3" orient="auto"><path d="M0,0 L0,6 L9,3 z" fill="black"/></marker></defs>
<line x1="300" y1="145" x2="370" y2="145" stroke="black" stroke-width="2" marker-end="url(#arrow)"/>
<line x1="590" y1="145" x2="660" y2="145" stroke="black" stroke-width="2" marker-end="url(#arrow)"/>
<line x1="770" y1="180" x2="480" y2="260" stroke="black" stroke-width="2" marker-end="url(#arrow)"/>
<line x1="480" y1="330" x2="190" y2="420" stroke="black" stroke-width="2" marker-end="url(#arrow)"/>
<line x1="480" y1="330" x2="480" y2="420" stroke="black" stroke-width="2" marker-end="url(#arrow)"/>
<line x1="480" y1="330" x2="770" y2="420" stroke="black" stroke-width="2" marker-end="url(#arrow)"/>
<line x1="480" y1="490" x2="480" y2="600" stroke="black" stroke-width="2" marker-end="url(#arrow)"/>
<line x1="590" y1="635" x2="660" y2="635" stroke="black" stroke-width="2" marker-end="url(#arrow)"/>
<rect x="80" y="110" width="220" height="70" rx="10" fill="white" stroke="black"/><text x="190.0" y="145.0" dominant-baseline="middle" text-anchor="middle" font-family="Arial" font-size="14">External Providers</text>
<rect x="370" y="110" width="220" height="70" rx="10" fill="white" stroke="black"/><text x="480.0" y="145.0" dominant-baseline="middle" text-anchor="middle" font-family="Arial" font-size="14">Discovery Manager</text>
<rect x="660" y="110" width="220" height="70" rx="10" fill="white" stroke="black"/><text x="770.0" y="145.0" dominant-baseline="middle" text-anchor="middle" font-family="Arial" font-size="14">Normalization</text>
<rect x="370" y="260" width="220" height="70" rx="10" fill="white" stroke="black"/><text x="480.0" y="295.0" dominant-baseline="middle" text-anchor="middle" font-family="Arial" font-size="14">Repository</text>
<rect x="80" y="420" width="220" height="70" rx="10" fill="white" stroke="black"/><text x="190.0" y="455.0" dominant-baseline="middle" text-anchor="middle" font-family="Arial" font-size="14">Lifecycle Engine</text>
<rect x="370" y="420" width="220" height="70" rx="10" fill="white" stroke="black"/><text x="480.0" y="455.0" dominant-baseline="middle" text-anchor="middle" font-family="Arial" font-size="14">Governance Engine</text>
<rect x="660" y="420" width="220" height="70" rx="10" fill="white" stroke="black"/><text x="770.0" y="455.0" dominant-baseline="middle" text-anchor="middle" font-family="Arial" font-size="14">Trust/Policy Adapters</text>
<rect x="370" y="600" width="220" height="70" rx="10" fill="white" stroke="black"/><text x="480.0" y="635.0" dominant-baseline="middle" text-anchor="middle" font-family="Arial" font-size="14">Event Publisher</text>
<rect x="660" y="600" width="220" height="70" rx="10" fill="white" stroke="black"/><text x="770.0" y="635.0" dominant-baseline="middle" text-anchor="middle" font-family="Arial" font-size="14">Knowledge Graph</text>
</svg>