<svg xmlns="http://www.w3.org/2000/svg" width="1200" height="800" viewBox="0 0 1200 800">
<rect width="1200" height="800" fill="#f8f8f8"/>
<text x="600" y="40" text-anchor="middle" font-family="Arial" font-size="28" font-weight="bold">EA-0034 Component Model</text>
<defs><marker id="arrow" markerWidth="10" markerHeight="10" refX="9" refY="3" orient="auto"><path d="M0,0 L0,6 L9,3 z" fill="black"/></marker></defs>
<line x1="270" y1="145" x2="320" y2="145" stroke="black" stroke-width="2" marker-end="url(#arrow)"/>
<line x1="520" y1="145" x2="570" y2="145" stroke="black" stroke-width="2" marker-end="url(#arrow)"/>
<line x1="770" y1="145" x2="820" y2="145" stroke="black" stroke-width="2" marker-end="url(#arrow)"/>
<line x1="170" y1="180" x2="170" y2="300" stroke="black" stroke-width="2" marker-end="url(#arrow)"/>
<line x1="420" y1="180" x2="420" y2="300" stroke="black" stroke-width="2" marker-end="url(#arrow)"/>
<line x1="670" y1="180" x2="670" y2="300" stroke="black" stroke-width="2" marker-end="url(#arrow)"/>
<line x1="920" y1="180" x2="920" y2="300" stroke="black" stroke-width="2" marker-end="url(#arrow)"/>
<line x1="170" y1="370" x2="445" y2="560" stroke="black" stroke-width="2" marker-end="url(#arrow)"/>
<line x1="420" y1="370" x2="500" y2="520" stroke="black" stroke-width="2" marker-end="url(#arrow)"/>
<line x1="670" y1="370" x2="620" y2="520" stroke="black" stroke-width="2" marker-end="url(#arrow)"/>
<line x1="920" y1="370" x2="705" y2="560" stroke="black" stroke-width="2" marker-end="url(#arrow)"/>
<rect x="70" y="110" width="200" height="70" rx="10" fill="white" stroke="black"/><text x="170.0" y="145.0" dominant-baseline="middle" text-anchor="middle" font-family="Arial" font-size="14">Connectors</text>
<rect x="320" y="110" width="200" height="70" rx="10" fill="white" stroke="black"/><text x="420.0" y="145.0" dominant-baseline="middle" text-anchor="middle" font-family="Arial" font-size="14">Normalizer</text>
<rect x="570" y="110" width="200" height="70" rx="10" fill="white" stroke="black"/><text x="670.0" y="145.0" dominant-baseline="middle" text-anchor="middle" font-family="Arial" font-size="14">Object Store</text>
<rect x="820" y="110" width="200" height="70" rx="10" fill="white" stroke="black"/><text x="920.0" y="145.0" dominant-baseline="middle" text-anchor="middle" font-family="Arial" font-size="14">Evidence Linker</text>
<rect x="70" y="300" width="200" height="70" rx="10" fill="white" stroke="black"/><text x="170.0" y="335.0" dominant-baseline="middle" text-anchor="middle" font-family="Arial" font-size="14">Credential Gov</text>
<rect x="320" y="300" width="200" height="70" rx="10" fill="white" stroke="black"/><text x="420.0" y="335.0" dominant-baseline="middle" text-anchor="middle" font-family="Arial" font-size="14">Certificate Gov</text>
<rect x="570" y="300" width="200" height="70" rx="10" fill="white" stroke="black"/><text x="670.0" y="335.0" dominant-baseline="middle" text-anchor="middle" font-family="Arial" font-size="14">Privilege Analysis</text>
<rect x="820" y="300" width="200" height="70" rx="10" fill="white" stroke="black"/><text x="920.0" y="335.0" dominant-baseline="middle" text-anchor="middle" font-family="Arial" font-size="14">Recommendation</text>
<rect x="445" y="520" width="260" height="80" rx="10" fill="white" stroke="black"/><text x="575.0" y="560.0" dominant-baseline="middle" text-anchor="middle" font-family="Arial" font-size="14">Event Bus Publisher</text>
</svg>