<svg xmlns="http://www.w3.org/2000/svg" width="1200" height="800" viewBox="0 0 1200 800">
<rect width="1200" height="800" fill="#f8f8f8"/>
<text x="600" y="40" text-anchor="middle" font-family="Arial" font-size="28" font-weight="bold">EA-0034 Event Flow</text>
<defs><marker id="arrow" markerWidth="10" markerHeight="10" refX="9" refY="3" orient="auto"><path d="M0,0 L0,6 L9,3 z" fill="black"/></marker></defs>
<line x1="300" y1="165" x2="370" y2="165" stroke="black" stroke-width="2" marker-end="url(#arrow)"/>
<line x1="590" y1="165" x2="660" y2="165" stroke="black" stroke-width="2" marker-end="url(#arrow)"/>
<line x1="770" y1="200" x2="480" y2="310" stroke="black" stroke-width="2" marker-end="url(#arrow)"/>
<line x1="590" y1="345" x2="660" y2="345" stroke="black" stroke-width="2" marker-end="url(#arrow)"/>
<line x1="480" y1="380" x2="480" y2="500" stroke="black" stroke-width="2" marker-end="url(#arrow)"/>
<line x1="590" y1="535" x2="660" y2="535" stroke="black" stroke-width="2" marker-end="url(#arrow)"/>
<rect x="80" y="130" width="220" height="70" rx="10" fill="white" stroke="black"/><text x="190.0" y="165.0" dominant-baseline="middle" text-anchor="middle" font-family="Arial" font-size="14">Provider Event</text>
<rect x="370" y="130" width="220" height="70" rx="10" fill="white" stroke="black"/><text x="480.0" y="165.0" dominant-baseline="middle" text-anchor="middle" font-family="Arial" font-size="14">AQELYN Event Bus</text>
<rect x="660" y="130" width="220" height="70" rx="10" fill="white" stroke="black"/><text x="770.0" y="165.0" dominant-baseline="middle" text-anchor="middle" font-family="Arial" font-size="14">IS-034 Consumer</text>
<rect x="370" y="310" width="220" height="70" rx="10" fill="white" stroke="black"/><text x="480.0" y="345.0" dominant-baseline="middle" text-anchor="middle" font-family="Arial" font-size="14">Assessment Event</text>
<rect x="660" y="310" width="220" height="70" rx="10" fill="white" stroke="black"/><text x="770.0" y="345.0" dominant-baseline="middle" text-anchor="middle" font-family="Arial" font-size="14">Evidence Engine</text>
<rect x="370" y="500" width="220" height="70" rx="10" fill="white" stroke="black"/><text x="480.0" y="535.0" dominant-baseline="middle" text-anchor="middle" font-family="Arial" font-size="14">Knowledge Graph</text>
<rect x="660" y="500" width="220" height="70" rx="10" fill="white" stroke="black"/><text x="770.0" y="535.0" dominant-baseline="middle" text-anchor="middle" font-family="Arial" font-size="14">Workflow Engine</text>
</svg>