<svg xmlns="http://www.w3.org/2000/svg" width="1200" height="800" viewBox="0 0 1200 800">
<rect width="1200" height="800" fill="#f8f8f8"/>
<text x="600" y="40" text-anchor="middle" font-family="Arial" font-size="28" font-weight="bold">EA-0034 Integration View</text>
<defs><marker id="arrow" markerWidth="10" markerHeight="10" refX="9" refY="3" orient="auto"><path d="M0,0 L0,6 L9,3 z" fill="black"/></marker></defs>
<line x1="260" y1="140" x2="420" y2="290" stroke="black" stroke-width="2" marker-end="url(#arrow)"/>
<line x1="260" y1="250" x2="420" y2="300" stroke="black" stroke-width="2" marker-end="url(#arrow)"/>
<line x1="260" y1="360" x2="420" y2="315" stroke="black" stroke-width="2" marker-end="url(#arrow)"/>
<line x1="260" y1="470" x2="420" y2="330" stroke="black" stroke-width="2" marker-end="url(#arrow)"/>
<line x1="680" y1="290" x2="850" y2="140" stroke="black" stroke-width="2" marker-end="url(#arrow)"/>
<line x1="680" y1="300" x2="850" y2="250" stroke="black" stroke-width="2" marker-end="url(#arrow)"/>
<line x1="680" y1="315" x2="850" y2="360" stroke="black" stroke-width="2" marker-end="url(#arrow)"/>
<line x1="680" y1="330" x2="850" y2="470" stroke="black" stroke-width="2" marker-end="url(#arrow)"/>
<line x1="680" y1="345" x2="850" y2="580" stroke="black" stroke-width="2" marker-end="url(#arrow)"/>
<rect x="70" y="110" width="190" height="60" rx="10" fill="white" stroke="black"/><text x="165.0" y="140.0" dominant-baseline="middle" text-anchor="middle" font-family="Arial" font-size="14">Cloud IAM</text>
<rect x="70" y="220" width="190" height="60" rx="10" fill="white" stroke="black"/><text x="165.0" y="250.0" dominant-baseline="middle" text-anchor="middle" font-family="Arial" font-size="14">Kubernetes</text>
<rect x="70" y="330" width="190" height="60" rx="10" fill="white" stroke="black"/><text x="165.0" y="360.0" dominant-baseline="middle" text-anchor="middle" font-family="Arial" font-size="14">Secrets</text>
<rect x="70" y="440" width="190" height="60" rx="10" fill="white" stroke="black"/><text x="165.0" y="470.0" dominant-baseline="middle" text-anchor="middle" font-family="Arial" font-size="14">PKI</text>
<rect x="420" y="260" width="260" height="90" rx="10" fill="white" stroke="black"/><text x="550.0" y="305.0" dominant-baseline="middle" text-anchor="middle" font-family="Arial" font-size="14">IS-034 Governance Engine</text>
<rect x="850" y="110" width="220" height="60" rx="10" fill="white" stroke="black"/><text x="960.0" y="140.0" dominant-baseline="middle" text-anchor="middle" font-family="Arial" font-size="14">Trust Engine</text>
<rect x="850" y="220" width="220" height="60" rx="10" fill="white" stroke="black"/><text x="960.0" y="250.0" dominant-baseline="middle" text-anchor="middle" font-family="Arial" font-size="14">Policy Engine</text>
<rect x="850" y="330" width="220" height="60" rx="10" fill="white" stroke="black"/><text x="960.0" y="360.0" dominant-baseline="middle" text-anchor="middle" font-family="Arial" font-size="14">Workflow Engine</text>
<rect x="850" y="440" width="220" height="60" rx="10" fill="white" stroke="black"/><text x="960.0" y="470.0" dominant-baseline="middle" text-anchor="middle" font-family="Arial" font-size="14">Evidence Engine</text>
<rect x="850" y="550" width="220" height="60" rx="10" fill="white" stroke="black"/><text x="960.0" y="580.0" dominant-baseline="middle" text-anchor="middle" font-family="Arial" font-size="14">Knowledge Graph</text>
</svg>