<svg xmlns="http://www.w3.org/2000/svg" width="1200" height="800" viewBox="0 0 1200 800">
<rect width="1200" height="800" fill="#f8f8f8"/>
<text x="600" y="40" text-anchor="middle" font-family="Arial" font-size="28" font-weight="bold">EA-0034 Governance Workflow</text>
<defs><marker id="arrow" markerWidth="10" markerHeight="10" refX="9" refY="3" orient="auto"><path d="M0,0 L0,6 L9,3 z" fill="black"/></marker></defs>
<line x1="260" y1="150" x2="300" y2="150" stroke="black" stroke-width="2" marker-end="url(#arrow)"/>
<line x1="480" y1="150" x2="520" y2="150" stroke="black" stroke-width="2" marker-end="url(#arrow)"/>
<line x1="700" y1="150" x2="740" y2="150" stroke="black" stroke-width="2" marker-end="url(#arrow)"/>
<line x1="920" y1="150" x2="960" y2="150" stroke="black" stroke-width="2" marker-end="url(#arrow)"/>
<line x1="1050" y1="180" x2="610" y2="300" stroke="black" stroke-width="2" marker-end="url(#arrow)"/>
<line x1="610" y1="360" x2="610" y2="470" stroke="black" stroke-width="2" marker-end="url(#arrow)"/>
<line x1="610" y1="530" x2="610" y2="640" stroke="black" stroke-width="2" marker-end="url(#arrow)"/>
<rect x="80" y="120" width="180" height="60" rx="10" fill="white" stroke="black"/><text x="170.0" y="150.0" dominant-baseline="middle" text-anchor="middle" font-family="Arial" font-size="14">Discover</text>
<rect x="300" y="120" width="180" height="60" rx="10" fill="white" stroke="black"/><text x="390.0" y="150.0" dominant-baseline="middle" text-anchor="middle" font-family="Arial" font-size="14">Normalize</text>
<rect x="520" y="120" width="180" height="60" rx="10" fill="white" stroke="black"/><text x="610.0" y="150.0" dominant-baseline="middle" text-anchor="middle" font-family="Arial" font-size="14">Assess</text>
<rect x="740" y="120" width="180" height="60" rx="10" fill="white" stroke="black"/><text x="830.0" y="150.0" dominant-baseline="middle" text-anchor="middle" font-family="Arial" font-size="14">Score</text>
<rect x="960" y="120" width="180" height="60" rx="10" fill="white" stroke="black"/><text x="1050.0" y="150.0" dominant-baseline="middle" text-anchor="middle" font-family="Arial" font-size="14">Recommend</text>
<rect x="520" y="300" width="180" height="60" rx="10" fill="white" stroke="black"/><text x="610.0" y="330.0" dominant-baseline="middle" text-anchor="middle" font-family="Arial" font-size="14">Publish Event</text>
<rect x="520" y="470" width="180" height="60" rx="10" fill="white" stroke="black"/><text x="610.0" y="500.0" dominant-baseline="middle" text-anchor="middle" font-family="Arial" font-size="14">Workflow</text>
<rect x="520" y="640" width="180" height="60" rx="10" fill="white" stroke="black"/><text x="610.0" y="670.0" dominant-baseline="middle" text-anchor="middle" font-family="Arial" font-size="14">Evidence</text>
</svg>