<svg xmlns="http://www.w3.org/2000/svg" width="1200" height="720" viewBox="0 0 1200 720">
<defs><marker id="arrow" markerWidth="10" markerHeight="10" refX="8" refY="3" orient="auto"><path d="M0,0 L0,6 L9,3 z" fill="#374151"/></marker></defs>
<rect width="100%" height="100%" fill="white"/><text x="600" y="60" text-anchor="middle" font-family="Arial" font-size="30" font-weight="bold">AQELYN Privacy, Data Protection &amp; Sovereignty Engine</text><text x="600" y="100" text-anchor="middle" font-family="Arial" font-size="22">Architecture Diagram</text><rect x="70" y="290" width="145" height="70" rx="10" fill="#f8fafc" stroke="#1f2937" stroke-width="2"/><text x="142" y="332" text-anchor="middle" font-family="Arial" font-size="18">Providers</text><rect x="250" y="370" width="145" height="70" rx="10" fill="#f8fafc" stroke="#1f2937" stroke-width="2"/><text x="322" y="412" text-anchor="middle" font-family="Arial" font-size="18">Ingress</text><line x1="215" y1="405" x2="250" y2="405" stroke="#374151" stroke-width="2" marker-end="url(#arrow)"/><rect x="430" y="290" width="145" height="70" rx="10" fill="#f8fafc" stroke="#1f2937" stroke-width="2"/><text x="502" y="332" text-anchor="middle" font-family="Arial" font-size="18">Core Engine</text><line x1="395" y1="360" x2="430" y2="325" stroke="#374151" stroke-width="2" marker-end="url(#arrow)"/><rect x="610" y="370" width="145" height="70" rx="10" fill="#f8fafc" stroke="#1f2937" stroke-width="2"/><text x="682" y="412" text-anchor="middle" font-family="Arial" font-size="18">Policy/Trust</text><line x1="575" y1="405" x2="610" y2="405" stroke="#374151" stroke-width="2" marker-end="url(#arrow)"/><rect x="790" y="290" width="145" height="70" rx="10" fill="#f8fafc" stroke="#1f2937" stroke-width="2"/><text x="862" y="332" text-anchor="middle" font-family="Arial" font-size="18">Event Bus</text><line x1="755" y1="360" x2="790" y2="325" stroke="#374151" stroke-width="2" marker-end="url(#arrow)"/><rect x="970" y="370" width="145" height="70" rx="10" fill="#f8fafc" stroke="#1f2937" stroke-width="2"/><text x="1042" y="412" text-anchor="middle" font-family="Arial" font-size="18">Knowledge Graph</text><line x1="935" y1="405" x2="970" y2="405" stroke="#374151" stroke-width="2" marker-end="url(#arrow)"/>
<text x="600" y="660" text-anchor="middle" font-family="Arial" font-size="16">AQELYN Engineering Archive - generated from approved master source</text></svg>